/* XPM */
static char *result[] = {
/* columns rows colors chars-per-pixel */
"64 64 242 2 ",
"   c #2B0A5B",
".  c #280E53",
"X  c #310A58",
"o  c #2D1657",
"O  c #361A59",
"+  c #270A4E",
"@  c #372258",
"#  c #2D0664",
"$  c #2D0A64",
"%  c #2E066A",
"&  c #2D096A",
"*  c #320663",
"=  c #320669",
"-  c #320A6A",
";  c #360B69",
":  c #381768",
">  c #370876",
",  c #3C1877",
"<  c #2E1B63",
"1  c #3D2764",
"2  c #421E5A",
"3  c #41305D",
"4  c #45126D",
"5  c #47196B",
"6  c #440D79",
"7  c #451473",
"8  c #4B1B76",
"9  c #471777",
"0  c #531877",
"q  c #4A0C6E",
"w  c #611A78",
"e  c #48266B",
"r  c #4B2273",
"t  c #462777",
"y  c #562878",
"u  c #553575",
"i  c #53386C",
"p  c #6F247A",
"a  c #60477A",
"s  c #892D7C",
"d  c #3B1181",
"f  c #380D82",
"g  c #4A0788",
"h  c #471D8D",
"j  c #4A1789",
"k  c #551989",
"l  c #461B92",
"z  c #4A1B93",
"x  c #4B1799",
"c  c #500E94",
"v  c #671788",
"b  c #661997",
"n  c #4A248A",
"m  c #522B8B",
"M  c #572787",
"N  c #593A88",
"B  c #4A2492",
"V  c #582896",
"C  c #5A3597",
"Z  c #4D3180",
"A  c #642E8E",
"S  c #682C8A",
"D  c #7B278C",
"F  c #64328B",
"G  c #653988",
"H  c #642E94",
"J  c #652D9B",
"K  c #6A2D95",
"L  c #762B98",
"P  c #653293",
"I  c #663B95",
"U  c #64329B",
"Y  c #663C9A",
"T  c #6A3A9C",
"R  c #6A3896",
"E  c #713088",
"W  c #4C10A6",
"Q  c #6B14A1",
"!  c #781AAA",
"~  c #7D17B6",
"^  c #582BA4",
"/  c #682DA8",
"(  c #7427A4",
")  c #653BA2",
"_  c #6C39A2",
"`  c #6A38A9",
"'  c #7735A9",
"]  c #6E35B4",
"[  c #684787",
"{  c #684594",
"}  c #764994",
"|  c #76579A",
" . c #705288",
".. c #796896",
"X. c #6A45A9",
"o. c #754AA9",
"O. c #7955A9",
"+. c #7C4DBD",
"@. c #7549B5",
"#. c #7C52B4",
"$. c #7C52BC",
"%. c #7A56B2",
"&. c #7A3AC9",
"*. c #7D4EC1",
"=. c #7D52C1",
"-. c #8C2C8D",
";. c #862987",
":. c #94258E",
">. c #922A8C",
",. c #99278E",
"<. c #8B328A",
"1. c #8C3A8C",
"2. c #8E2A94",
"3. c #8C2898",
"4. c #932692",
"5. c #992593",
"6. c #932992",
"7. c #9D269A",
"8. c #893595",
"9. c #870EBE",
"0. c #8314B6",
"q. c #8313BB",
"w. c #8914BB",
"e. c #811FAD",
"r. c #8630AB",
"t. c #9937A3",
"y. c #8B3AB5",
"u. c #9737B7",
"i. c #8429B4",
"p. c #A131A6",
"a. c #984297",
"s. c #914B8E",
"d. c #A56297",
"f. c #825CAC",
"g. c #8450AB",
"h. c #8248BA",
"j. c #855CB1",
"k. c #8152BB",
"l. c #8959BA",
"z. c #9454B7",
"x. c #9954A5",
"c. c #A347BB",
"v. c #8366A9",
"b. c #8B68B6",
"n. c #9679BA",
"m. c #9E7EB8",
"M. c #936CB4",
"N. c #890FC2",
"B. c #8415C2",
"V. c #911BD1",
"C. c #9639C3",
"Z. c #9727D9",
"A. c #983CD5",
"S. c #8C35D1",
"D. c #A13BC4",
"F. c #A53CDA",
"G. c #A321DF",
"H. c #A81DEB",
"J. c #AC1AFC",
"K. c #A81CF6",
"L. c #B317FA",
"P. c #9C27E5",
"I. c #9D35ED",
"U. c #A526E9",
"Y. c #A83AE6",
"T. c #AC33EF",
"R. c #8947C6",
"E. c #9749CB",
"W. c #885BC6",
"Q. c #9958C6",
"!. c #8948D8",
"~. c #994AD6",
"^. c #855ADC",
"/. c #8858D8",
"(. c #9B55D8",
"). c #A257C8",
"_. c #A64BDA",
"`. c #A354D5",
"'. c #A657DB",
"]. c #B356D9",
"[. c #A140C2",
"{. c #8A69C9",
"}. c #936CCD",
"|. c #9667C7",
" X c #9776C8",
".X c #8C66D5",
"XX c #946AD3",
"oX c #9566DB",
"OX c #946ADB",
"+X c #9965D5",
"@X c #9675D3",
"#X c #8E70D7",
"$X c #A772CD",
"%X c #A977D3",
"&X c #AC70D2",
"*X c #974DE7",
"=X c #8654E5",
"-X c #8955E5",
";X c #8A5AE3",
":X c #8655EB",
">X c #8A54EB",
",X c #8959EA",
"<X c #955FE8",
"1X c #8B53F2",
"2X c #8753F2",
"3X c #8E4FED",
"4X c #A44AE3",
"5X c #A948E5",
"6X c #A452E7",
"7X c #B345E7",
"8X c #976AE7",
"9X c #9867F4",
"0X c #976EE4",
"qX c #A47BEC",
"wX c #A87CEA",
"eX c #A37CF4",
"rX c #AA7DF3",
"tX c #A57BFB",
"yX c #A978FA",
"uX c #AE6FE9",
"iX c #A186B9",
"pX c #9C81D4",
"aX c #A588D5",
"sX c #B599DF",
"dX c #A989D2",
"fX c #A482EC",
"gX c #A481E2",
"hX c #BA89E7",
"jX c #B793E7",
"kX c #AB80F2",
"lX c #BE8DF2",
"zX c #B693F7",
"xX c #C9A5DE",
"cX c #C593E9",
"vX c #C487F1",
"bX c #C290EB",
"nX c #C7B5EA",
"mX c #CAB5FB",
"MX c #CBB8F2",
"NX c #CAAAF1",
"BX c #D0C2EF",
"VX c None",
/* pixels */
"VXVXVXVXVXVXVXVXVXVXVXVXVXVXVXVXVXVXVXVXVXVXVXVXVXVXVXVXVXVXVXVXVXVXVXVXVXVXVXVXVXVXVXVXVXVXVXVXVXVXVXVXVXVXVXVXVXVXVXVXVXVXVXVX",
"VXVXVXVXVXVXVXVXVXVXVXVXVXVXVXVXVXVXVXVXVXVXVXVXVXVXVXVXVXVXVXVXVXVXVXVXVXVXVXVXVXVXVXVXVXVXVXVXVXVXVXVXVXVXVXVXVXVXVXVXVXVXVXVX",
"VXVXVXVXVXVXVXVXVXVXVXVXVXVXVXVXVXVXVXVXVXVXVXVXVXVXVXVXVXVXVXVXVXVXVXVXVXVXVXVXVXVXVXVXVXVXVXVXVXVXVXVXVXVXVXVXVXVXVXVXVXVXVXVX",
"VXVXVXVXVXVXVXVXVXVXVXVXVXVXVXVXVXVXVXVXVXVXVXVXVXVXVXVXVXVXVXVXVXVXVXVXVXVXVXVXVXVXVXVXVXVXVXVXVXVXVXVXVXVXVXVXVXVXVXVXVXVXVXVX",
"VXVXVXVXVXVXVXVXVXVXVXVXVXVXVXVXVXVXVXVXVXVXVXVXVXVXVXVXVXVXVXVXVXVXVXVXVXVXVXVXVXVXVXVXVXVXVXVXVXVXVXVXVXVXVXVXVXVXVXVXVXVXVXVX",
"VXVXVXVXVXVXVXVXVXVXVXVXVXVXVXVXVXVXVXVXVXVXVXVXVXVXVXVXVXVXVXVXVXVXVXVXVXVXVXVXVXVXVXVXVXVXVXVXVXVXVXVXVXVXVXVXVXVXVXVXVXVXVXVX",
"VXVXVXVXVXVXVXVXVXVXVXVXVXVXVXVXVXVXVXVXVXVXVXVXVXVXVXVXVXVXVXVXVXVXVXVXVXVXVXVXVXVXVXVXVXVXVXVXVXVXVXVXVXVXVXVXVXVXVXVXVXVXVXVX",
"VXVXVXVXVXVXVXVXVXVXVXVXVXVXVXVXVXBXVXnXVXVXVXVXVXVXVXVXVXVXVXVXVXVXVXVXVXVXVXVXVXVXVXVXVX    VXVXVXVXVXVXVXVXVXVXVXVXVXVXVXVXVX",
"VXVXVXVXVXVXVXVXVXVXVXVXVX[  .VXVXmXmXmXVXVXVXM.| VXVXVXVXVXVXVXVXVXVXVXVXVXVXVX#XVXVX9 VX. + VX  n VXB VXVXVXVXVXVXVXVXVXVXVXVX",
"VXVXVXVXVXVXVXVXVXVXVXr VXe e VXsXVXnXVXmXn.VX{ { VX{ VXVXVXVXVXVXVXVXVXo VX, VX X@X, , % v.VX% ^ x VXx m VXVXVXVXVXVXVXVXVXVXVX",
"VXVXVXVXVXVXVXVXVXVXj.VX8 VXVXo.mXVXVXVXMXVX` P VXT VXVX} VXVXVXVXVXVXo & VX  +.oXVXVX# 0X$ - VX> VXVXVXVXVXVXVXVXVXVXVXVXVXVXVX",
"VXVXVXVXVXVXVXVX$.VXVXn VX#.u VX XXXMXdXmXaXG { U H T P VXVX} VXVXVXVXVXVX}.9 , VXC @.$ $ VXXXt $ VXX.VXVXVXVXO.VXVXVXVXVXVXVXVX",
"VXVXVXVXVXVXVXVXVX+.k.+.k.VXv.OXNXmXMXmXVXo.VXA K VX` | ' K VXVXVXVX5 e VX$ .XVX8XVXVX$ u #XVXVX> VXW V / Y j.VXT VXVXVXVXVXVXVX",
"VXVXVXVXVXVXn.VX#.VXM 8 VX#.] VX0X XmX0X>X.XW./ ,X@.R o.(.L VX' VX8 VXVX7 % : v.8XVXVX- VXXX#XVX% VXVXT VXl.VXY O.VXVXVXVXVXVXVX",
"VXVXVXVXVXVXl.$.n.%.VXVXo.k..XoX XVX,X}.| >X>X-X_ _ >X} 4XL C._.8 VXr VXVX+XVXoXVXz.j VX& % % V.].VXVX|.| l.*.=.%.VXv.VXVXVXVXVX",
"VXVXVXVXVX5X_.R.VX$.VXVX+.VX$.OXVX1XVX8X,X>X>X>X>X-XVX,XVX5X4X' b VXL ( [ c VX8.oX-.<.@.R VXVX>XVX_.VXo.,X%._  .$.k.VXVXVXVXVXVX",
"VXVXVXVX(.+XE.5X#.VXVXb.VX$.v.0XVX XqX>X X}.@.b.T -X.XP VX' h.#.#.9.0 k B.W.VXVX>.OX@X5.VXO.I.7X<X^.=X/.%.VX=.$.VX*.VX$.VXVXVXVX",
"VXVXVXVXVXVXVX(.$.|.VXVXO.*. XXXeXVX>X.XVX>XT >XVX.X>XVX=X_ VX~ 0.t Q b X.q.3.:.rX#X(.i x.> ~ eX;X1X1X=X:XR.o.VX*.VXk.b.VXVXVXVX",
"VXVXVXm W W VXA.K.L.R.*.+.VX$.3 =X8X=Xb.,Xo.}.A >XS 3XJ 2Xk.$.~ N.h.%.VXVXw.8.:.VXkXy [ y.VX>XqXJ.VXVX#.1X:X .,X%.%.o.O.VXVXVXVX",
"VXVXVXx VXx d K.!.U.H.D.VXVXVX& =Xf >X.X,X XF VX2XrX=X+.>Xh.VXi.q.VX~ ! S.y.r.VX-.tXVX5.X.^.>XVX-XuX/.-XVX>X=XOXVX@.& - O VXVXVX",
"VXVXVXW C VXVXL.U.VX_.].= 1 VXVX:Xf 2X] VX1XVX,XtX9X>X+.>XVX#.VXVXq.N.N.0.~.VX8.VX5.6.(.T 3X>XVX(.&X*X*X~.;X1X#.X.VXm VXO VXVXVX",
"VXVXVXVXC k x M H.7XU.VX. VX% % , W 2X1XW B yXVXqX-X>X@X*.VX*.VXVX~ VXS.0.VXtXkXrXC.[.|.<X1X,XVXVX4XVXuX~.>X2XVXVXVXVXo $ VXVXVX",
"VXVXVX8 VXj x 5 I.].VXMXo o = VX$ 2X^ :X>X1X8X>X>X:XeX>Xn.+.VX$.R.VX!.F.$.K.VXVXaX6XQ.$X(.=.,XVX2XVXVX>XVX>X>XtXVX- {   VXVXVXVX",
"VXVXVXVXr VXVXVX5 VXVXVXr ..6 > t VX*.> @.>X>X:XjXVX>XVXVX#.+.VXVXJ.A.VXJ.VXU.[ VXQ.c.u.3.VX3.,XVXVX4X'.>X-X' 2XfXVXe > VXVXVXVX",
"VXVXr 8 VXVXVXVXb.VXVXVXVXVXg g c VX9 :X&.4 4 fXk.-XVXVXhXVXO.Y.K.%.H.F.VXK.VX_ _ 8.:.x.VX:.).E.1X3X^.>X,X' eXtXVXVXVXVXdXVXVXVX",
"VXVXr 8 VXVXVXVX8 t.VXVXVX6.% VXVXg : 4 1 VXeXq 8.d.t VXk.:  XjXJ.R.VXVXY.L.T VXVXVX3.;.VX`.>.1.-X:X:X-X~.] 8XeXT VXVXVXaXVXVXVX",
"VXVXVXVXr VXVXVXz.<.,.>.:.4.D % > = g q 7 VX1.s 4.-.0 = % VXC A.G.VXJ.U.VXT.).R VX_ 0 <.$ ;.2.u.VXVXK _ =XVXVXX.qXC G tXVXVXVXVX",
"VXVXVXr VXG V 0 VX5.+X;.VX4.g VXVXVX6 6 9 VXVXVXw q <.VXVX& U = VXL.F.VXT.VXC.{ VXT 5.# VXVX;.w   # / VXK VXC l O.h W.VXVXVXVXVX",
"VXVXVXVXVXVXVX4.6.VXVXOXt.g -.;.{ g R 8 _ VXVX= . s.4.VX$ VX% ~ i.r.VXVXVX_.T VXVXX - -.5.d.1.VX% %X|.xXVXVXVXJ VX/.X.VXVXVXVXVX",
"VXVXVXVXVX@XVX3.6.+X2.VX4.%X4.2.g ) 6 v.7 7 ;.5.X ,.y VXe.0.= 0.g M cXE.VXVX&XM M *   s.6.VXVXVX# lXM.xXjXVXVXG , P VXVXVXVXVXVX",
"VXVXVXVXVXXXXXVXXX5.VXQ.VX:.k g.j VXVXVX9 j.i D 2 E @ VX& 0.= O.l.' hXvX`.V 5XJ VX: B & VX$   VX% jXhXVXlXF V [ B V N VXVXVXVXVX",
"VXVXVXVXVXXX{.pX6.VX5.5.:.(.2.Z.I VXVXVX{ Y VX-XqX% e VX1X& & N r.= % vXy.z l / z z VXd % O O # VX$XjXzXVXVXVXF J VXK VXVXVXVXVX",
"VXVXVXVXVX@XVXOXVX6.Q.VXQ.p.U.H.VXVXVXVXVXVXoXVX) ,X,X] $ S.j 0.VX6 lXVXVXl VXl H VXl M VX, o _.q Z.VXe.H A H H VX[ VXVXVXVXVXVX",
"VXVXVXVXVXVXVX}.OX X X(.Y.T.VXF.J.VXVXVX{ VXVX1X:X2X:X>X:X] hX%X%XVXbXz h z.x VXf.VXh VXVXo F.K.U.VXZ.L.'.VX|.VXK VXVXVXVXVXVXVX",
"VXVXVXVXVXVXVXVXVXOX<X5X5X6XU.A.L.VXVX[ 1XVX2X1XVX#XMXOX:X>XOX1XVXVX_.n z &.x *XVX$.h k.$.O.VXP.Q.VXU._._.( 6XVXVXVXVXVXVXVXVXVX",
"VXVXVXVXVXVXVXVXpX'.(.|.).VX_.L.VXVX! VXVX~.,Xt =X/.^.;XVX>X^.<X@XXXmXVXuXB E.O.+.N l N VX} VX( b VX0 VX].VXVXVXVXVXVXVXVXVXVXVX",
"VXVXVXVXVXVXVXVXVX(._.VXVXVXVXVXVXE.0.9.0.>X>X* .X& VXVXVX;X>XVX@XMXVXVXj VXh h z l VXVX$.VXq V.VX4 `.b 4XVX4XVXVXVXVXVXVXVXVXVX",
"VXVXVXVXVXVXVXVXVX'._.VXVX6X+XVX; VXe.y.q.>X>XB.qXC , VXVX^.>XVXwXNXa.VXVX-.W.#.VX^ VXVX7 4 U.6 Q VX, V.F.$XVXVXVXVXVXVXVXVXVXVX",
"VXVXVXVXVXVXVXVXVXVXVX5XVX).4X~.k ~ VXVXVX3X,XE.1XVX] 2X}.1X>XVX+X{ 7.:.:.2.VXVX+.VXf.M.u 4 O.U.VXy 7 Y.VXVXVXVXVXVXVXVXVXVXVXVX",
"VXVXVXVXVXVXVXVXVXVXVXVXVXVX`.VXVX( M q.,XVX^.>X& d B *.^.>XVX:XVX5.0 VXVX8.:.2.eX#.xXVX7 4 VX4 5 VX4 VXVXVXVXVXVXVXVXVXVXVXVXVX",
"VXVXVXVXVXVXVXVXVXVXVXVXVXVX< - VX* N.E.VX~ kX,X>X/.{.>X>X/.8Xk OX,.<.{ wXVX,.uXVXbXlXh.h.jX4 2  .7 VXVXVXVXVXVXVXVXVXVXVXVXVXVX",
"VXVXVXVXVXVXVXVXVXVXVXVXVXVXVX< VX: VXVXVX+X!.rX1X1X=X=XVXx ^.W.a <.4.VXG %X6.VXkXkXjXbXv.VX&XVXVXVXVXVXVXVXVXVXVXVXVXVXVXVXVXVX",
"VXVXVXVXVXVXVXVXVXVXVXVXVXVXVXVXVXgXVXVXVXVXyX1XVXn n h -X^ Z 9 8 >.VX1.p S ,.6.$.P vXbXVXVXjXVXVXVXVXVXVXVXVXVXVXVXVXVXVXVXVXVX",
"VXVXVXVXVXVXVXVXVXVXVXVXVXVXVXVXVXVXzXVXVXVXqXVXv.VX}.x z VXVX0 a.0 4.>.6.5.VX$ & v.|.bXVXvXVXVXVXVXVXVXVXVXVXVXVXVXVXVXVXVXVXVX",
"VXVXVXVXVXVXVXVXVXVXVXVXVXVXVXVXVXVXVXkXkXdXqXVXVXVXVXVX+.VXm.VX8 D 0 W.) Q.rXVXVXVXVXVXVXVXVXVXVXVXVXVXVXVXVXVXVXVXVXVXVXVXVXVX",
"VXVXVXVXVXVXVXVXVXVXVXVXVXVXVXVXVXVXVXfXfXVX*.VX=.iX$.[ +.U H M F I ) F VXtXkXVXVXVXVXVXVXVXVXVXVXVXVXVXVXVXVXVXVXVXVXVXVXVXVXVX",
"VXVXVXVXVXVXVXVXVXVXVXVXVXVXVXVXVXVXVXVXVX$.VX*.VXVXG.R.P.$.VXVXVXK _ { VX_ VX: $ * $ @ VXVXVXVXVXVXVXVXVXVXVXVXVXVXVXVXVXVXVXVX",
"VXVXVXVXVXVXVXVXVXVXVXVXVXVXVXVXVXVXVXVXVXVXb.VX+.S.H.' L.D.P F } VXR I J VXVXG VXVXVXVXVXVXVXVXVXVXVXVXVXVXVXVXVXVXVXVXVXVXVXVX",
"VXVXVXVXVXVXVXVXVXVXVXVXVXVXVXVXVXVXVXVXVXVXVXk.VXE.VX#.VXK VX1 VX@ _ A _ VX_ VXVXVXVXVXVXVXVXVXVXVXVXVXVXVXVXVXVXVXVXVXVXVXVXVX",
"VXVXVXVXVXVXVXVXVXVXVXVXVXVXVXVXVXVXVXVXVXVXVXVXVXF VXH.VX/ VX; VX$ M T R T | { VXVXVXVXVXVXVXVXVXVXVXVXVXVXVXVXVXVXVXVXVXVXVXVX",
"VXVXVXVXVXVXVXVXVXVXVXVXVXVXVXVXVXVXVXVXVXVXVXVXVXVXVXK.VXVX} VXK VXM  .S VXR VXVXVXVXVXVXVXVXVXVXVXVXVXVXVXVXVXVXVXVXVXVXVXVXVX",
"VXVXVXVXVXVXVXVXVXVXVXVXVXVXVXVXVXVXVXVXVXVXVXVXVXVXVX{ K VXVXVX. y H VX{ VXVXVXVXVXVXVXVXVXVXVXVXVXVXVXVXVXVXVXVXVXVXVXVXVXVXVX",
"VXVXVXVXVXVXVXVXVXVXVXVXVXVXVXVXVXVXVXVXVXVXVXVXVXVXVXVXE P H V ; P VXG VXVXVXVXVXVXVXVXVXVXVXVXVXVXVXVXVXVXVXVXVXVXVXVXVXVXVXVX",
"VXVXVXVXVXVXVXVXVXVXVXVXVXVXVXVXVXVXVXVXVXVXVXVXVXVXVXI VXVXG F VXVXI VXVXVXVXVXVXVXVXVXVXVXVXVXVXVXVXVXVXVXVXVXVXVXVXVXVXVXVXVX",
"VXVXVXVXVXVXVXVXVXVXVXVXVXVXVXVXVXVXVXVXVXVXVXVXVXVXVXVXVXJ VXVXu R VXVXVXVXVXVXVXVXVXVXVXVXVXVXVXVXVXVXVXVXVXVXVXVXVXVXVXVXVXVX",
"VXVXVXVXVXVXVXVXVXVXVXVXVXVXVXVXVXVXVXVXVXVXVXVXVXVXVXVXVXVXVXVXVXVXVXVXVXVXVXVXVXVXVXVXVXVXVXVXVXVXVXVXVXVXVXVXVXVXVXVXVXVXVXVX",
"VXVXVXVXVXVXVXVXVXVXVXVXVXVXVXVXVXVXVXVXVXVXVXVXVXVXVXVXVXVXVXVXVXVXVXVXVXVXVXVXVXVXVXVXVXVXVXVXVXVXVXVXVXVXVXVXVXVXVXVXVXVXVXVX",
"VXVXVXVXVXVXVXVXVXVXVXVXVXVXVXVXVXVXVXVXVXVXVXVXVXVXVXVXVXVXVXVXVXVXVXVXVXVXVXVXVXVXVXVXVXVXVXVXVXVXVXVXVXVXVXVXVXVXVXVXVXVXVXVX",
"VXVXVXVXVXVXVXVXVXVXVXVXVXVXVXVXVXVXVXVXVXVXVXVXVXVXVXVXVXVXVXVXVXVXVXVXVXVXVXVXVXVXVXVXVXVXVXVXVXVXVXVXVXVXVXVXVXVXVXVXVXVXVXVX",
"VXVXVXVXVXVXVXVXVXVXVXVXVXVXVXVXVXVXVXVXVXVXVXVXVXVXVXVXVXVXVXVXVXVXVXVXVXVXVXVXVXVXVXVXVXVXVXVXVXVXVXVXVXVXVXVXVXVXVXVXVXVXVXVX",
"VXVXVXVXVXVXVXVXVXVXVXVXVXVXVXVXVXVXVXVXVXVXVXVXVXVXVXVXVXVXVXVXVXVXVXVXVXVXVXVXVXVXVXVXVXVXVXVXVXVXVXVXVXVXVXVXVXVXVXVXVXVXVXVX",
"VXVXVXVXVXVXVXVXVXVXVXVXVXVXVXVXVXVXVXVXVXVXVXVXVXVXVXVXVXVXVXVXVXVXVXVXVXVXVXVXVXVXVXVXVXVXVXVXVXVXVXVXVXVXVXVXVXVXVXVXVXVXVXVX",
"VXVXVXVXVXVXVXVXVXVXVXVXVXVXVXVXVXVXVXVXVXVXVXVXVXVXVXVXVXVXVXVXVXVXVXVXVXVXVXVXVXVXVXVXVXVXVXVXVXVXVXVXVXVXVXVXVXVXVXVXVXVXVXVX",
"VXVXVXVXVXVXVXVXVXVXVXVXVXVXVXVXVXVXVXVXVXVXVXVXVXVXVXVXVXVXVXVXVXVXVXVXVXVXVXVXVXVXVXVXVXVXVXVXVXVXVXVXVXVXVXVXVXVXVXVXVXVXVXVX"
};
