/* XPM */
static char *result[] = {
/* columns rows colors chars-per-pixel */
"64 64 208 2 ",
"   c #1C120F",
".  c #0B0F19",
"X  c #100E1A",
"o  c #1A1C1A",
"O  c #15191B",
"+  c #0B0F11",
"@  c #321B0D",
"#  c #251B16",
"$  c #1E251C",
"%  c #27281A",
"&  c #3D2A16",
"*  c #3B3118",
"=  c #141925",
"-  c #1D0737",
";  c #170F24",
":  c #231D26",
">  c #23093D",
",  c #26083D",
"<  c #271936",
"1  c #192029",
"2  c #392927",
"3  c #2B2133",
"4  c #2A2839",
"5  c #31332E",
"6  c #4B3618",
"7  c #563C18",
"8  c #5F3F3B",
"9  c #42342E",
"0  c #284430",
"q  c #68491D",
"w  c #70511F",
"e  c #40493A",
"r  c #7B5B24",
"t  c #6D463E",
"y  c #6E5B34",
"u  c #280945",
"i  c #2A1243",
"p  c #330953",
"a  c #3B0C54",
"s  c #3C0B5A",
"d  c #370A58",
"f  c #34104C",
"g  c #1D2847",
"h  c #272D4C",
"j  c #24304C",
"k  c #3E304E",
"l  c #273554",
"z  c #393558",
"x  c #302B4A",
"c  c #2C3C63",
"v  c #2E3D6B",
"b  c #313F6F",
"n  c #333F76",
"m  c #420B5D",
"M  c #42135C",
"N  c #431E45",
"B  c #422F4F",
"V  c #463A48",
"C  c #423854",
"Z  c #512B58",
"A  c #653A58",
"S  c #4B0D65",
"D  c #480C63",
"F  c #530E6A",
"G  c #590F6E",
"H  c #510E67",
"J  c #5D1071",
"K  c #56156B",
"L  c #621074",
"P  c #6B127A",
"I  c #671378",
"U  c #72147F",
"Y  c #59256C",
"T  c #573865",
"R  c #5E3D74",
"E  c #633B68",
"W  c #344050",
"Q  c #2F4068",
"!  c #34456B",
"~  c #3C4D6E",
"^  c #364664",
"/  c #364976",
"(  c #38517C",
")  c #584742",
"_  c #55445C",
"`  c #5E534A",
"'  c #68575B",
"]  c #724E4C",
"[  c #657D51",
"{  c #7F7356",
"}  c #6E635B",
"|  c #5A4767",
" . c #445276",
".. c #465A7C",
"X. c #674879",
"o. c #754E78",
"O. c #6C5578",
"+. c #765678",
"@. c #70536F",
"#. c #73617E",
"$. c #866D2B",
"%. c #B17F3D",
"&. c #8D5C53",
"*. c #815148",
"=. c #8B6543",
"-. c #8B597C",
";. c #946A71",
":. c #86687C",
">. c #AB736F",
",. c #AC5A77",
"<. c #DC5D76",
"1. c #B28139",
"2. c #8B8066",
"3. c #B68579",
"4. c #BA9B65",
"5. c #A68553",
"6. c #DABA46",
"7. c #751481",
"8. c #7B1585",
"9. c #743C81",
"0. c #374581",
"q. c #3C4C8C",
"w. c #394785",
"e. c #3F5D8D",
"r. c #3E4C92",
"t. c #425582",
"y. c #475C88",
"u. c #415496",
"i. c #445B9C",
"p. c #4E4D86",
"a. c #754683",
"s. c #685783",
"d. c #7E5D89",
"f. c #6B4B82",
"g. c #4D628E",
"h. c #546995",
"j. c #5A7196",
"k. c #4C6693",
"l. c #7A708D",
"z. c #617791",
"x. c #475BA2",
"c. c #4864A3",
"v. c #4B6BAA",
"b. c #4966A8",
"n. c #5F78A2",
"m. c #637BA4",
"M. c #86178C",
"N. c #8E1992",
"B. c #8C1792",
"V. c #9C1B9B",
"C. c #931A96",
"Z. c #A21D9F",
"A. c #9A2699",
"S. c #8C3290",
"D. c #AC1FA5",
"F. c #A61DA1",
"G. c #B320A9",
"H. c #A925A2",
"J. c #934896",
"K. c #97589B",
"L. c #BC4B8E",
"P. c #AC5881",
"I. c #8C7A89",
"U. c #876992",
"Y. c #916E97",
"T. c #967096",
"R. c #A1738A",
"E. c #B27B87",
"W. c #9B53A1",
"Q. c #9379A4",
"!. c #B36DAF",
"~. c #B046AD",
"^. c #D06D80",
"/. c #74899E",
"(. c #6F89AC",
"). c #6A85AC",
"_. c #798DA8",
"`. c #6E87B5",
"'. c #738EB5",
"]. c #7591B6",
"[. c #7894B9",
"{. c #928980",
"}. c #A7938E",
"|. c #B39398",
" X c #AC92B6",
".X c #B090AE",
"XX c #C78B82",
"oX c #D78A86",
"OX c #D4978D",
"+X c #CF9890",
"@X c #C3988C",
"#X c #E39F93",
"$X c #C8A89B",
"%X c #D4AF9B",
"&X c #E6A49B",
"*X c #E2BC9C",
"=X c #D39DA0",
"-X c #DEAEA6",
";X c #D0B7BB",
":X c #E5A9A3",
">X c #E1BEAE",
",X c #F1B0A5",
"<X c #E5C09A",
"1X c #F8C7B8",
"2X c #84A1C5",
"3X c #BFA7C6",
"4X c #CAB4C5",
"5X c None",
/* pixels */
"5X5X5X5X5X5X5X5X5X5X5X5X5X5X5X5X5X5X5X5X5X5X5X5X5X5X5X5X5X5X5X5X5X5X5X5X5X5X5X5X5X5X5X5X5X5X5X5X5X5X5X5X5X5X5X5X5X5X5X5X5X5X5X5X",
"5X5X5X5X5X5X5X5X5X5X5X5X5X5X5X5X5X5X5X5X5X5X5X5X5X5X5X5X5X5X5X5X5X5X5X5X5X5X5X5X5X5X5X5X5X5X5X5X5X5X5X5X5X5X5X5X5X5X5X5X5X5X5X5X",
"5X5X5X5X5X5X5X5X5X5X5X5X5X5X5X5X5X5X5X5X5X5X5X5X5X5X5X5X5X5X5X5X5X5X5X5X5X5X5X5X5X5X5X5X5X5X5X5X5X5X5X5X5X5X5X5X5X5X5X5X5X5X5X5X",
"5X5X5X5X5X5X5X5X5X5X5X5X5X5X5X5X5X5X5X5X5X5X5X5X5X5X5X5X5X5X5X5X5X5X5X5X5X5X5X5X5X5X5X5X5X5X5X5X5X5X5X5X5X5X5X5X5X5X5X5X5X5X5X5X",
"5X5X5X5X5X5X5X5X5X5X5X5X5X5X5X5X5X5X5X5X5X5X5X5X5X5X5X5X5X5X5X5X5X5X5X5X5X5X5X5X5X5X5X5X5X5X5X5X5X5X5X5X5X5X5X5X5X5X5X5X5X5X5X5X",
"5X5X5X5X5X5X5X5X5X5X5X5X5X5X5X5X5X5X5X5X5X5X5X5X5X5X5X5X5X5X5X5X5X5X5X5X5X5X5X5X5X5X5X5X5X5X5X5X5X5X5X5X5X5X5X5X5X5X5X5X5X5X5X5X",
"5X5X5X5X5X5X5X5X5X5X5X5X5X5X5X5X5X5X5X5X5X5X5X5X5X5X5X5X5X5X5X5X5X5X5X5X5X5X5X5X5X5X5X5X5X5X5X5X5X5X5X5X5X5X5X5X5X5X5X5X5X5X5X5X",
"5X5X5X5X5X5X5X5X5X5X5X5X5X5X5X5X5X5X5X5X5X5X5X5X5X5X5X5X5X5X5X5X5X5X5X5X5X5X5X5X5X5X5X5X5X5X5X5X5X5X5X5X5X5X5X5X5X5X5X5X5X5X5X5X",
"5X5X5X5X5X5X5X5X5X5X5X5X5X5X5X5X5X5X5X5X5X5X5X5X5X5X5X5X5X5X5X5X5X5X5X5X5X5X5X5X5X5X5X5X5X5X5X5X5X5X5X5X5X5X5X5X5X5X5X5X5X5X5X5X",
"5X5X5X5X5X5X5X5X5X5X5X5X5X5X5X5X5X5X5X5X5X5X5X5X5X5X_ O.5X5X5X5X5X5X5X5XO._ 5X5X5X5X5X5X5X5X5X5X5X5X5X5X5X5X5X5X5X5X5X5X5X5X5X5X",
"5X5X5X5X5X5X5X5X5X5X5X5X5X5X5X5X5X5X5X5X5X5X5X5X5X> O.Y.3 - > - - - - 3 U.O.> 5X5X5X5X5X5X5X5X5X5X5X5X5X5X5X5X5X5X5X5X5X5X5X5X5X",
"5X5X5X5X5X5X5X5X5X5X5X5X5X5X5X5X5X5X5X5X5X5X5X5Xa U 9.R i a G J J G a i X.9.U a 5X5X5X5X5X5X5X5X5X5X5X5X5X5X5X5X5X5X5X5X5X5X5X5X",
"5X5X5X5X5X5X5X5X5X5X5X5X5X5X5X5X5X5X5X5X5X5X5Xi o.!.a.D H M.C.V.V.V.8.G M a.!.a.i 5X5X5X5X5X5X5X5X5X5X5X5X5X5X5X5X5X5X5X5X5X5X5X",
"5X5X5X5X5X5X5X5X5X5X5X5X5X5X5X5X5X5X5X5X5X5X5XM J.Y.R S B.D.G.G.G.H.J.W.S R Y.J.M 5X5X5X5X5X5X5X5X5X5X5X5X5X5X5X5X5X5X5X5X5X5X5X",
"5X5X5X5X5X5X5X5X5X5X5X5X5X5X5X5X5X5X5X5X5X5Xu I A.Y Y B.D.V.D.G.G.H.S.~.N.Y Y A.P , 5X5X5X5X5X5X5X5X5X5X5X5X5X5X5X5X5X5X5X5X5X5X",
"5X5X5X5X5X5X5X5X5X5X5X5X5X5X5X5X5X5X5X5X5X5Xs N.8.D 7.F.V.L B.D.D.A.W.S.F.7.D 8.C.s 5X5X5X5X5X5X5X5X5X5X5X5X5X5X5X5X5X5X5X5X5X5X",
"5X5X5X5X5X5X5X5X5X5X5X5X5X5X5X5X5X5X5X5X5X5Xm F.L D I M.B.m P D.F.S.Y.K.U P S L Z.m 5X5X5X5X5X5X5X5X5X5X5X5X5X5X5X5X5X5X5X5X5X5X",
"5X5X5X5X5X5X5X5X5X5X5X5X5X5X5X5X5X5X5X5X5X5Xs N.L m D P M.s J 7.B.I O.!.m D m L N.s 5X5X5X5X5X5X5X5X5X5X5X5X5X5X5X5X5X5X5X5X5X5X",
"5X5X5X5X5X5X5X5X5X5X5X5X5X5X5X5X5X5X5X5X5X5XH U F p d G P s s d P H R.+XA d a F 7.H 5X5X5X5X5X5X5X5X5X5X5X5X5X5X5X5X5X5X5X5X5X5X",
"5X5X5X5X5X5X5X5X5X5X5X5X5X5X5X5X5X5X5X5X5Xp U I m N f S H , u p G Z XX#XR.f N M L U p 5X5X5X5X5X5X5X5X5X5X5X5X5X5X5X5X5X5X5X5X5X",
"5X5X5X5X5X5X5X5X5X5X5X5X5X5X5X5X5X5X5X5X5X, F a < ] A d T 9 x E M x y 3.R.A A < s F u 5X5X5X5X5X5X5X5X5X5X5X5X5X5X5X5X5X5X5X5X5X",
"5X5X5X5X5X5X5X5X5X5X5X5X5X5X5X5X5X5X5X5X5X5X- - ; o.-.u 2.[ 0 +XO.5 [ %X-.-.o.; 5X> 5X5X5X5X5X5X5X5X5X5X5X5X5X5X5X5X5X5X5X5X5X5X",
"5X5X5X5X5X5X5X5X5X5X5X5X5X5X5X5X5X5X5X5X5X5X5X5X< o.o.A |.;.` >X>X` 2.%X,.f.o.4 5X5X5X5X5X5X5X5X5X5X5X5X5X5X5X5X5X5X5X5X5X5X5X5X",
"5X5X5X5X5X5X5X5X5X5X5X5X5X5X5X5X5X5X5X5X5X5X5X~  .o.U.L.<.3.,X1X1X,XoX<.L.U.s. .~ 5X5X5X5X5X5X5X5X5X5X5X5X5X5X5X5X5X5X5X5X5X5X5X",
"5X5X5X5X5X5X5X5X5X5X5X5X5X5X5X5X5X5XW ~ ~ ^ 1 /._.l.:.U.;.&.XXOXOXXX&.;.Y.:.l._./.1 W ~ ~ Q 5X5X5X5X5X5X5X5X5X5X5X5X5X5X5X5X5X5X",
"5X5X5X5X5X5X5X5X5X5X5X5X5X5X5Xj ~ ! `.2X2X_.O 2 &.3.1X|.}.3.] ] ) t 3.}.|.1X3.&.2 O ].2X2X(.! ~ 5X5X5X5X5X5X5X5X5X5X5X5X5X5X5X5X",
"5X5X5X5X5X5X5X5X5X5X5X5X5X5X5Xj.2X].`.`.`.m.4 2 OX@X$XI.5 $ $ ;.C o : 6 5.$X@XOX2 4 m.`.`.`.'.2Xj.5X5X5X5X5X5X5X5X5X5X5X5X5X5X5X",
"5X5X5X5X5X5X5X5X5X5X5X5X5X5Xg.].m.h.g.g.h.g.( : V O o V W ) 5 _ $ 5 e y 1.O O 8 = ..h.h.g.g.h.m.].g.5X5X5X5X5X5X5X5X5X5X5X5X5X5X",
"5X5X5X5X5X5X5X5X5X5X5X5X5X..[.y.v c c c q.! t.c  .h = _ k 5 0 | 5 % 1 ) _ = g ( c t.! t.c c c v g.[...5X5X5X5X5X5X5X5X5X5X5X5X5X",
"5X5X5X5X5X5X5X5X5X5X5X5X..[.k./ r.q.i.w.v e.v n v q.w.f.O.} =.' XXy } o...w.q.! n v r.v 0.i.q.i.! g.[. .5X5X5X5X5X5X5X5X5X5X5X5X",
"5X5X5X5X5X5X5X5X5X5X5X~ ].j.n r.b.r.x.r.q.c.w.r.i.i.^ k E.&X&X=.4.&XoX,.B ! u.i.r.w.x.q.r.x.u.x.u.! j.[.~ 5X5X5X5X5X5X5X5X5X5X5X",
"5X5X5X5X5X5X5X5X5X5X^ '.z./ r.v.i.b.r.x.v.c.0.c.i.! = C E.:X:X<X*X&X<.E.z = / i.c.0.c.b.x.q.b.i.b.r.! m.].^ 5X5X5X5X5X5X5X5X5X5X",
"5X5X5X5X5X5X5X5X5Xj ).m./ v.c.( ! c.5Xw.0.5X5X5X5X5X< | :.#.}.6.1.}.+.{.| < 5X5X5X5X5X0.w.j c.! ( i.v.( m.).j 5X5X5X5X5X5X5X5X5X",
"5X5X5X5X5X5X5X5X5Xl m.! / e.5X5X5X5X5X5X5X5X5X5X5X5X|  X{.Q.4X%.6.4XQ.U. X| 5X5X5X5X5X5X5X5X5X5X5X5Xe./ ! n.j 5X5X5X5X5X5X5X5X5X",
"5X5X5X5X5X5X5X5X5Xg t.5X5X5X5X5X5X5X5X5X5X5X5X5X5X5Xk | U.3X X.X;X X4XU.| C 5X5X5X5X5X5X5X5X5X5X5X5X5X5X5Xy.g 5X5X5X5X5X5X5X5X5X",
"5X5X5X5X5X5X5X5X5X5X5X5X5X5X5X5X5X5X5X5X5X5X5X5X5X5X2 >.+.| T Y.s._ | +.>.2 5X5X5X5X5X5X5X5X5X5X5X5X5X5X5X5X5X5X5X5X5X5X5X5X5X5X",
"5X5X5X5X5X5X5X5X5X5X5X5X5X5X5X5X5X5X5X5X5X5X5X5X5X5X2 >.:X} 3 C B 3 } -X>.& 5X5X5X5X5X5X5X5X5X5X5X5X5X5X5X5X5X5X5X5X5X5X5X5X5X5X",
"5X5X5X5X5X5X5X5X5X5X5X5X5X5X5X5X5X5X5X5X5X5X5X5X5X5X5Xt +Xs.; X X ; s.+XA 5X5X5X5X5X5X5X5X5X5X5X5X5X5X5X5X5X5X5X5X5X5X5X5X5X5X5X",
"5X5X5X5X5X5X5X5X5X5X5X5X5X5X5X5X5X5X5X5X5X5X5X5X5X5X5Xx p.t.j . X j p.p.x 5X5X5X5X5X5X5X5X5X5X5X5X5X5X5X5X5X5X5X5X5X5X5X5X5X5X5X",
"5X5X5X5X5X5X5X5X5X5X5X5X5X5X5X5X5X5X5X5X5X5X5X5X5X5X5Xg q.x.Q j.z.c x.q.g 5X5X5X5X5X5X5X5X5X5X5X5X5X5X5X5X5X5X5X5X5X5X5X5X5X5X5X",
"5X5X5X5X5X5X5X5X5X5X5X5X5X5X5X5X5X5X5X5X5X5X5X5X5X5X5X5Xl ).'.W z (.).g . 5X5X5X5X5X5X5X5X5X5X5X5X5X5X5X5X5X5X5X5X5X5X5X5X5X5X5X",
"5X5X5X5X5X5X5X5X5X5X5X5X5X5X5X5X5X5X5X5X5X5X5X5X5X5X5X5X# ) =.o o { ` # + 5X5X5X5X5X5X5X5X5X5X5X5X5X5X5X5X5X5X5X5X5X5X5X5X5X5X5X",
"5X5X5X5X5X5X5X5X5X5X5X5X5X5X5X5X5X5X5X5X5X5X5X5X5X5X5X6 6 w $.% % $.w 6 6 5X5X5X5X5X5X5X5X5X5X5X5X5X5X5X5X5X5X5X5X5X5X5X5X5X5X5X",
"5X5X5X5X5X5X5X5X5X5X5X5X5X5X5X5X5X5X5X5X5X5X5X5X5X5X6 q 6 r 6 5X5X7 w 6 w 6 5X5X5X5X5X5X5X5X5X5X5X5X5X5X5X5X5X5X5X5X5X5X5X5X5X5X",
"5X5X5X5X5X5X5X5X5X5X5X5X5X5X5X5X5X5X5X5X5X5X5X5X5X& q & @ r 5X5X5X5Xr @ & q 5X5X5X5X5X5X5X5X5X5X5X5X5X5X5X5X5X5X5X5X5X5X5X5X5X5X",
"5X5X5X5X5X5X5X5X5X5X5X5X5X5X5X5X5X5X5X5X5X5X5X5X5X5X* 5X  7 % 5X5X% 7   5X* 5X5X5X5X5X5X5X5X5X5X5X5X5X5X5X5X5X5X5X5X5X5X5X5X5X5X",
"5X5X5X5X5X5X5X5X5X5X5X5X5X5X5X5X5X5X5X5X5X5X5X5X5X5X5X5X5X# $ 5X5X% # 5X5X5X5X5X5X5X5X5X5X5X5X5X5X5X5X5X5X5X5X5X5X5X5X5X5X5X5X5X",
"5X5X5X5X5X5X5X5X5X5X5X5X5X5X5X5X5X5X5X5X5X5X5X5X5X5X5X5X5X5XO 5X5X5X5X5X5X5X5X5X5X5X5X5X5X5X5X5X5X5X5X5X5X5X5X5X5X5X5X5X5X5X5X5X",
"5X5X5X5X5X5X5X5X5X5X5X5X5X5X5X5X5X5X5X5X5X5X5X5X5X5X5X5X5X5X5X5X5X5X5X5X5X5X5X5X5X5X5X5X5X5X5X5X5X5X5X5X5X5X5X5X5X5X5X5X5X5X5X5X",
"5X5X5X5X5X5X5X5X5X5X5X5X5X5X5X5X5X5X5X5X5X5X5X5X5X5X5X5X5X5X5X5X5X5X5X5X5X5X5X5X5X5X5X5X5X5X5X5X5X5X5X5X5X5X5X5X5X5X5X5X5X5X5X5X",
"5X5X5X5X5X5X5X5X5X5X5X5X5X5X5X5X5X5X5X5X5X5X5X5X5X5X5X5X5X5X5X5X5X5X5X5X5X5X5X5X5X5X5X5X5X5X5X5X5X5X5X5X5X5X5X5X5X5X5X5X5X5X5X5X",
"5X5X5X5X5X5X5X5X5X5X5X5X5X5X5X5X5X5X5X5X5X5X5X5X5X5X5X5X5X5X5X5X5X5X5X5X5X5X5X5X5X5X5X5X5X5X5X5X5X5X5X5X5X5X5X5X5X5X5X5X5X5X5X5X",
"5X5X5X5X5X5X5X5X5X5X5X5X5X5X5X5X5X5X5X5X5X5X5X5X5X5X5X5X5X5X5X5X5X5X5X5X5X5X5X5X5X5X5X5X5X5X5X5X5X5X5X5X5X5X5X5X5X5X5X5X5X5X5X5X",
"5X5X5X5X5X5X5X5X5X5X5X5X5X5X5X5X5X5X5X5X5X5X5X5X5X5X5X5X5X5X5X5X5X5X5X5X5X5X5X5X5X5X5X5X5X5X5X5X5X5X5X5X5X5X5X5X5X5X5X5X5X5X5X5X",
"5X5X5X5X5X5X5X5X5X5X5X5X5X5X5X5X5X5X5X5X5X5X5X5X5X5X5X5X5X5X5X5X5X5X5X5X5X5X5X5X5X5X5X5X5X5X5X5X5X5X5X5X5X5X5X5X5X5X5X5X5X5X5X5X",
"5X5X5X5X5X5X5X5X5X5X5X5X5X5X5X5X5X5X5X5X5X5X5X5X5X5X5X5X5X5X5X5X5X5X5X5X5X5X5X5X5X5X5X5X5X5X5X5X5X5X5X5X5X5X5X5X5X5X5X5X5X5X5X5X",
"5X5X5X5X5X5X5X5X5X5X5X5X5X5X5X5X5X5X5X5X5X5X5X5X5X5X5X5X5X5X5X5X5X5X5X5X5X5X5X5X5X5X5X5X5X5X5X5X5X5X5X5X5X5X5X5X5X5X5X5X5X5X5X5X",
"5X5X5X5X5X5X5X5X5X5X5X5X5X5X5X5X5X5X5X5X5X5X5X5X5X5X5X5X5X5X5X5X5X5X5X5X5X5X5X5X5X5X5X5X5X5X5X5X5X5X5X5X5X5X5X5X5X5X5X5X5X5X5X5X",
"5X5X5X5X5X5X5X5X5X5X5X5X5X5X5X5X5X5X5X5X5X5X5X5X5X5X5X5X5X5X5X5X5X5X5X5X5X5X5X5X5X5X5X5X5X5X5X5X5X5X5X5X5X5X5X5X5X5X5X5X5X5X5X5X",
"5X5X5X5X5X5X5X5X5X5X5X5X5X5X5X5X5X5X5X5X5X5X5X5X5X5X5X5X5X5X5X5X5X5X5X5X5X5X5X5X5X5X5X5X5X5X5X5X5X5X5X5X5X5X5X5X5X5X5X5X5X5X5X5X",
"5X5X5X5X5X5X5X5X5X5X5X5X5X5X5X5X5X5X5X5X5X5X5X5X5X5X5X5X5X5X5X5X5X5X5X5X5X5X5X5X5X5X5X5X5X5X5X5X5X5X5X5X5X5X5X5X5X5X5X5X5X5X5X5X",
"5X5X5X5X5X5X5X5X5X5X5X5X5X5X5X5X5X5X5X5X5X5X5X5X5X5X5X5X5X5X5X5X5X5X5X5X5X5X5X5X5X5X5X5X5X5X5X5X5X5X5X5X5X5X5X5X5X5X5X5X5X5X5X5X",
"5X5X5X5X5X5X5X5X5X5X5X5X5X5X5X5X5X5X5X5X5X5X5X5X5X5X5X5X5X5X5X5X5X5X5X5X5X5X5X5X5X5X5X5X5X5X5X5X5X5X5X5X5X5X5X5X5X5X5X5X5X5X5X5X",
"5X5X5X5X5X5X5X5X5X5X5X5X5X5X5X5X5X5X5X5X5X5X5X5X5X5X5X5X5X5X5X5X5X5X5X5X5X5X5X5X5X5X5X5X5X5X5X5X5X5X5X5X5X5X5X5X5X5X5X5X5X5X5X5X"
};
