/* XPM */
static char *result[] = {
/* columns rows colors chars-per-pixel */
"64 64 220 2 ",
"   c #121A14",
".  c #161718",
"X  c #25150D",
"o  c #2A1C11",
"O  c #1A2517",
"+  c #212113",
"@  c #382814",
"#  c #131827",
"$  c #1E0739",
"%  c #1E0939",
"&  c #1B0734",
"*  c #181D35",
"=  c #110922",
"-  c #20073B",
";  c #271B38",
":  c #3C1E37",
">  c #18233B",
",  c #1F2623",
"<  c #292626",
"1  c #392525",
"2  c #2C322B",
"3  c #303234",
"4  c #493718",
"5  c #563919",
"6  c #452F16",
"7  c #4A2D27",
"8  c #553835",
"9  c #573728",
"0  c #364A33",
"q  c #69491A",
"w  c #534A30",
"e  c #4D4D37",
"r  c #765622",
"t  c #625A36",
"y  c #6A6529",
"u  c #1E1941",
"i  c #261C4E",
"p  c #340B53",
"a  c #3C0B5A",
"s  c #380A57",
"d  c #3A1059",
"f  c #2B0F46",
"g  c #1B2643",
"h  c #1F294D",
"j  c #25274C",
"k  c #392D45",
"l  c #292955",
"z  c #382857",
"x  c #263354",
"c  c #2B3959",
"v  c #393751",
"b  c #2E3C64",
"n  c #2C3469",
"m  c #273260",
"M  c #373769",
"N  c #333B75",
"B  c #430C5C",
"V  c #491A5F",
"C  c #4D394B",
"Z  c #4A3955",
"A  c #543859",
"S  c #4C344E",
"D  c #470C62",
"F  c #4C0C66",
"G  c #550F6C",
"H  c #580F6E",
"J  c #520E67",
"K  c #4C1866",
"L  c #5E0F72",
"P  c #5D1171",
"I  c #53106B",
"U  c #641275",
"Y  c #6C137B",
"T  c #671576",
"R  c #71147E",
"E  c #701C7C",
"W  c #552869",
"Q  c #593A6A",
"!  c #6C3476",
"~  c #314059",
"^  c #32456B",
"/  c #37486C",
"(  c #304771",
")  c #3C4F78",
"_  c #3A4D73",
"`  c #3A527D",
"'  c #37517F",
"]  c #2E4169",
"[  c #55475A",
"{  c #55554C",
"}  c #664F4A",
"|  c #594669",
" . c #565767",
".. c #47487B",
"X. c #584976",
"o. c #40547B",
"O. c #45597E",
"+. c #4F5573",
"@. c #684B67",
"#. c #64566A",
"$. c #78576B",
"%. c #694C73",
"&. c #6A567A",
"*. c #795978",
"=. c #714C73",
"-. c #6E696B",
";. c #8B7519",
":. c #846427",
">. c #887527",
",. c #855D56",
"<. c #8D7746",
"1. c #89725A",
"2. c #854769",
"3. c #855C6D",
"4. c #8A5F73",
"5. c #9C5971",
"6. c #867769",
"7. c #926A70",
"8. c #A16E6C",
"9. c #A87173",
"0. c #BB931E",
"q. c #BC8356",
"w. c #A98676",
"e. c #AD8D6D",
"r. c #373E81",
"t. c #791584",
"y. c #7A1C86",
"u. c #761582",
"i. c #773C82",
"p. c #762780",
"a. c #3A4589",
"s. c #3D4A8D",
"d. c #384783",
"f. c #3B5385",
"g. c #3D558A",
"h. c #3F4E91",
"j. c #454C88",
"k. c #475A82",
"l. c #404F96",
"z. c #43549B",
"x. c #455697",
"c. c #5E4F87",
"v. c #7D458B",
"b. c #795A85",
"n. c #765687",
"m. c #63588B",
"M. c #4E6387",
"N. c #53678A",
"B. c #446297",
"V. c #546A92",
"C. c #576E99",
"Z. c #5C739C",
"A. c #7C668A",
"S. c #6D7594",
"D. c #465DA2",
"F. c #485DA4",
"G. c #4B6CAB",
"H. c #4964A9",
"J. c #4E6DB1",
"K. c #4F72B3",
"L. c #5175B5",
"P. c #5175B8",
"I. c #537ABC",
"U. c #5178B6",
"Y. c #4C71AB",
"T. c #637CA7",
"R. c #83168B",
"E. c #87198D",
"W. c #8C1991",
"Q. c #921995",
"!. c #9C1B9B",
"~. c #971A98",
"^. c #A21C9F",
"/. c #982A97",
"(. c #963B97",
"). c #852E8C",
"_. c #A51DA0",
"`. c #AA1EA4",
"'. c #B52FAD",
"]. c #855891",
"[. c #8F4B95",
"{. c #81668B",
"}. c #9A6783",
"|. c #886795",
" X c #926D9B",
".X c #8E739C",
"XX c #887193",
"oX c #94799C",
"OX c #A87784",
"+X c #BD7483",
"@X c #9E59A0",
"#X c #A947A8",
"$X c #AB55AD",
"%X c #AE60AF",
"&X c #6A83A9",
"*X c #7189AE",
"=X c #738EB3",
"-X c #7690BA",
";X c #7B98BD",
":X c #6F8AB2",
">X c #7F9BC1",
",X c #908590",
"<X c #B48B86",
"1X c #8E8EA6",
"2X c #A28CAD",
"3X c #A689B5",
"4X c #B78FBC",
"5X c #C79E8E",
"6X c #C68D93",
"7X c #D29C90",
"8X c #D8A79F",
"9X c #E7A691",
"0X c #DDBAAA",
"qX c #D3A6A5",
"wX c #FABEB2",
"eX c #E4ADA2",
"rX c #819DC2",
"tX c #84A1C5",
"yX c #BAA0C3",
"uX c None",
/* pixels */
"uXuXuXuXuXuXuXuXuXuXuXuXuXuXuXuXuXuXuXuXuXuXuXuXuXuXuXuXuXuXuXuXuXuXuXuXuXuXuXuXuXuXuXuXuXuXuXuXuXuXuXuXuXuXuXuXuXuXuXuXuXuXuXuX",
"uXuXuXuXuXuXuXuXuXuXuXuXuXuXuXuXuXuXuXuXuXuXuXuXuXuXuXuXuXuXuX[ [ uXuXuXuXuXuXuXuXuXuXuXuXuXuXuXuXuXuXuXuXuXuXuXuXuXuXuXuXuXuXuX",
"uXuXuXuXuXuXuXuXuXuXuXuXuXuXuXuXuXuXuXuXuXuXuXuXuXuXuXuXuXuX: {. XZ & & uXuXuXuXuXuXuXuXuXuXuXuXuXuXuXuXuXuXuXuXuXuXuXuXuXuXuXuX",
"uXuXuXuXuXuXuXuXuXuXuXuXuXuXuXuXuXuXuXuXuXuXuXuXuXuXa a a a W |.4Xn.s D p uXuXuXuXuXuXuXuXuXuXuXuXuXuXuXuXuXuXuXuXuXuXuXuXuXuXuX",
"uXuXuXuXuXuXuXuXuXuXuXuXuXuXuXuXuXuXuXuXuXuXuXuXa U y.y.R t.y.i. Xn.T W.H - uXuXuXuXuXuXuXuXuXuXuXuXuXuXuXuXuXuXuXuXuXuXuXuXuXuX",
"uXuXuXuXuXuXuXuXuXuXuXuXuXuXuXuXuXuXuXuXuXuXuXJ R.!.$X#X_._.^.E Q i.R Q.Y - uXuXuXuXuXuXuXuXuXuXuXuXuXuXuXuXuXuXuXuXuXuXuXuXuXuX",
"uXuXuXuXuXuXuXuXuXuXuXuXuXuXuXuXuXuXuXuXuXuXB E.`.^.[.#X`.^.^.~.[.].E ~.W.B uXuXuXuXuXuXuXuXuXuXuXuXuXuXuXuXuXuXuXuXuXuXuXuXuXuX",
"uXuXuXuXuXuXuXuXuXuXuXuXuXuXuXuXuXuXuXuXuXuXY _.#X(.)./.`.Q.E./.@XoXv.R.~.U uXuXuXuXuXuXuXuXuXuXuXuXuXuXuXuXuXuXuXuXuXuXuXuXuXuX",
"uXuXuXuXuXuXuXuXuXuXuXuXuXuXuXuXuXuXuXuXuXuXE.`.%X X(.W.Q.R.T ! b. X[.L Q.u.uXuXuXuXuXuXuXuXuXuXuXuXuXuXuXuXuXuXuXuXuXuXuXuXuXuX",
"uXuXuXuXuXuXuXuXuXuXuXuXuXuXuXuXuXuXuXuXuXH !.Q.). X#XR.R Q.Y W |.].I L Q.t.$ uXuXuXuXuXuXuXuXuXuXuXuXuXuXuXuXuXuXuXuXuXuXuXuXuX",
"uXuXuXuXuXuXuXuXuXuXuXuXuXuXuXuXuXuXuXuXuXu.Q.Y K Q ).W.T T W.T ! ).U D t.t.f uXuXuXuXuXuXuXuXuXuXuXuXuXuXuXuXuXuXuXuXuXuXuXuXuX",
"uXuXuXuXuXuXuXuXuXuXuXuXuXuXuXuXuXuXuXuX- u.u.F =.W G Q.E.U Y G F E.u.s u.U & uXuXuXuXuXuXuXuXuXuXuXuXuXuXuXuXuXuXuXuXuXuXuXuXuX",
"uXuXuXuXuXuXuXuXuXuXuXuXuXuXuXuXuXuXuXuX$ H P s OX}.P R.`.T B a a t.u.s L H $ uXuXuXuXuXuXuXuXuXuXuXuXuXuXuXuXuXuXuXuXuXuXuXuXuX",
"uXuXuXuXuXuXuXuXuXuXuXuXuXuXuXuXuXuXuXuX$ B F K OX8X=.H ^.T s s a U H a L F $ uXuXuXuXuXuXuXuXuXuXuXuXuXuXuXuXuXuXuXuXuXuXuXuXuX",
"uXuXuXuXuXuXuXuXuXuXuXuXuXuXuXuXuXuXuXuXuXf p 7.8.,.S H !.T f l l W G a F s $ uXuXuXuXuXuXuXuXuXuXuXuXuXuXuXuXuXuXuXuXuXuXuXuXuX",
"uXuXuXuXuXuXuXuXuXuXuXuXuXuXuXuXuXuXuXuXuX= : 6X1.e k F t.L i _ V.j.z i l i * uXuXuXuXuXuXuXuXuXuXuXuXuXuXuXuXuXuXuXuXuXuXuXuXuX",
"uXuXuXuXuXuXuXuXuXuXuXuXuXuXuXuXuXuXuXuXuXuX7 5X-.0 { Q G D i N.>XZ.` f.o./ g uXuXuXuXuXuXuXuXuXuXuXuXuXuXuXuXuXuXuXuXuXuXuXuXuX",
"uXuXuXuXuXuXuXuXuXuXuXuXuXuXuXuXuXuXuXuXuXuX7 5X6.{ e.-.a p ; M.>X;X;X>X-XC.] c uXuXuXuXuXuXuXuXuXuXuXuXuXuXuXuXuXuXuXuXuXuXuXuX",
"uXuXuXuXuXuXuXuXuXuXuXuXuXuXuXuXuXuXuXuXuXuX7 <X0X0X9X2.p ; = b C.&X1X>XrX;X&XN.c c j uXuXuXuXuXuXuXuXuXuXuXuXuXuXuXuXuXuXuXuXuX",
"uXuXuXuXuXuXuXuXuXuXuXuXuXuXuXuXuXuXuXuXuXuXuX} 7XwXwX8.Z X.3 > ] ( M.T.T.=XtX;X&XZ.O.g uXuXuXuXuXuXuXuXuXuXuXuXuXuXuXuXuXuXuXuX",
"uXuXuXuXuXuXuXuXuXuXuXuXuXuXuXuXuXuXuXuXuXuXuXuX,.9.<X$.=.{.Z # x f.' _ _ O.Z.:X-XtX=XN.o.uXuXuXuXuXuXuXuXuXuXuXuXuXuXuXuXuXuXuX",
"uXuXuXuXuXuXuXuXuXuXuXuXuXuXuXuXuXuXuXuXuXuXuXuX1 8 @.@.b.{.C   x G.B.( ( ( ' k.N.&X=X;X&Xc uXuXuXuXuXuXuXuXuXuXuXuXuXuXuXuXuXuX",
"uXuXuXuXuXuXuXuXuXuXuXuXuXuXuXuXuXuXuXuXuXuXuXuXuX; 3.3.@.*.C < m z.K.U.U.K.B.~ ] ^ ` Z.=XC.x uXuXuXuXuXuXuXuXuXuXuXuXuXuXuXuXuX",
"uXuXuXuXuXuXuXuXuXuXuXuXuXuXuXuXuXuXuXuXuXuXuXuXuX. < < 5 3.b.=...l.P.&XU.K.U.Y.Y.Y.B.^ o.Z.M.> uXuXuXuXuXuXuXuXuXuXuXuXuXuXuXuX",
"uXuXuXuXuXuXuXuXuXuXuXuXuXuXuXuXuXuXuXuXuXuXuXuXuX2 e 2 :.e.{.|.c.h.J.P.J.D.P.P.P.P.H.B.g.( ) / > uXuXuXuXuXuXuXuXuXuXuXuXuXuXuX",
"uXuXuXuXuXuXuXuXuXuXuXuXuXuXuXuXuXuXuXuXuXuXuXuXuX3 e 3 y 1.{.|.n.l.F.J.D.h.J.H.J.J.H.P.Y.' f.) c uXuXuXuXuXuXuXuXuXuXuXuXuXuXuX",
"uXuXuXuXuXuXuXuXuXuXuXuXuXuXuXuXuXuXuXuXuXuXuXuXuX< 2 2 w @.n.|.n.c.s.F.z.h.D.a.F.D.s.G.U.Y.B.^ o.x uXuXuXuXuXuXuXuXuXuXuXuXuXuX",
"uXuXuXuXuXuXuXuXuXuXuXuXuXuXuXuXuXuXuXuXuXuXuXuXuXuX  t e.4.%.=.| A M r.N h.h.r.a.D.r.s.D.a.s.g.b ) g uXuXuXuXuXuXuXuXuXuXuXuXuX",
"uXuXuXuXuXuXuXuXuXuXuXuXuXuXuXuXuXuXuXuXuXuXuXuXuXuX@ w.OX| A 2.9.#.v j & l a.n l a.n j a.n j N * c g uXuXuXuXuXuXuXuXuXuXuXuXuX",
"uXuXuXuXuXuXuXuXuXuXuXuXuXuXuXuXuXuXuXuXuXuXuXuXuXuX7 w.6X5.3.*.=. .&.#.* > l uXuXuXuXuXuXuXuXuXuXuXuXuXuXuXuXuXuXuXuXuXuXuXuXuX",
"uXuXuXuXuXuXuXuXuXuXuXuXuXuXuXuXuXuXuXuXuXuXuXuXuXuX5 q.9X9.9.A.&.X.oXA.l x uXuXuXuXuXuXuXuXuXuXuXuXuXuXuXuXuXuXuXuXuXuXuXuXuXuX",
"uXuXuXuXuXuXuXuXuXuXuXuXuXuXuXuXuXuXuXuXuXuXuXuXuXuXq 0.e.-.X.1X2X|.A.Q ..g.x uXuXuXuXuXuXuXuXuXuXuXuXuXuXuXuXuXuXuXuXuXuXuXuXuX",
"uXuXuXuXuXuXuXuXuXuXuXuXuXuXuXuXuXuXuXuXuXuXuXuXuXuX>.>. .X.A.oXyX,X| M l.U.f.uXuXuXuXuXuXuXuXuXuXuXuXuXuXuXuXuXuXuXuXuXuXuXuXuX",
"uXuXuXuXuXuXuXuXuXuXuXuXuXuXuXuXuXuXuXuXuXuXuXuXuXuXw } &.3XoX.X.X| S [ x.B.z.m uXuXuXuXuXuXuXuXuXuXuXuXuXuXuXuXuXuXuXuXuXuXuXuX",
"uXuXuXuXuXuXuXuXuXuXuXuXuXuXuXuXuXuXuXuXuXuXuXuXuXuX; -..X3XXX%.4.7.$.[ b b N h uXuXuXuXuXuXuXuXuXuXuXuXuXuXuXuXuXuXuXuXuXuXuXuX",
"uXuXuXuXuXuXuXuXuXuXuXuXuXuXuXuXuXuXuXuXuXuXuXuXuXuXuXA.XXb.*.@.OXeX8.1 uXuXuXuXuXuXuXuXuXuXuXuXuXuXuXuXuXuXuXuXuXuXuXuXuXuXuXuX",
"uXuXuXuXuXuXuXuXuXuXuXuXuXuXuXuXuXuXuXuXuXuXuXuXuXuXuXk v S 4.6XqXw.8 uXuXuXuXuXuXuXuXuXuXuXuXuXuXuXuXuXuXuXuXuXuXuXuXuXuXuXuXuX",
"uXuXuXuXuXuXuXuXuXuXuXuXuXuXuXuXuXuXuXuXuXuXuXuXuXuXuXuXuX1 | m.&.v uXuXuXuXuXuXuXuXuXuXuXuXuXuXuXuXuXuXuXuXuXuXuXuXuXuXuXuXuXuX",
"uXuXuXuXuXuXuXuXuXuXuXuXuXuXuXuXuXuXuXuXuXuXuXuXuXuXuXuXuXk ..' h uXuXuXuXuXuXuXuXuXuXuXuXuXuXuXuXuXuXuXuXuXuXuXuXuXuXuXuXuXuXuX",
"uXuXuXuXuXuXuXuXuXuXuXuXuXuXuXuXuXuXuXuXuXuXuXuXuXuXuXuXuXh h.B.o.uXuXuXuXuXuXuXuXuXuXuXuXuXuXuXuXuXuXuXuXuXuXuXuXuXuXuXuXuXuXuX",
"uXuXuXuXuXuXuXuXuXuXuXuXuXuXuXuXuXuXuXuXuXuXuXuXuXuXuXuXuX* f.:X1X .uXuXuXuXuXuXuXuXuXuXuXuXuXuXuXuXuXuXuXuXuXuXuXuXuXuXuXuXuXuX",
"uXuXuXuXuXuXuXuXuXuXuXuXuXuXuXuXuXuXuXuXuXuXuXuXuXuXuXuXuX> M.w.<.w O uXuXuXuXuXuXuXuXuXuXuXuXuXuXuXuXuXuXuXuXuXuXuXuXuXuXuXuXuX",
"uXuXuXuXuXuXuXuXuXuXuXuXuXuXuXuXuXuXuXuXuXuXuXuXuXuXuXuXuX. } <.r 4 + uXuXuXuXuXuXuXuXuXuXuXuXuXuXuXuXuXuXuXuXuXuXuXuXuXuXuXuXuX",
"uXuXuXuXuXuXuXuXuXuXuXuXuXuXuXuXuXuXuXuXuXuXuXuXuXuXuXuXuX6 r :.5 @ uXuXuXuXuXuXuXuXuXuXuXuXuXuXuXuXuXuXuXuXuXuXuXuXuXuXuXuXuXuX",
"uXuXuXuXuXuXuXuXuXuXuXuXuXuXuXuXuXuXuXuXuXuXuXuXuXuXuXuX@ r :.q @ uXuXuXuXuXuXuXuXuXuXuXuXuXuXuXuXuXuXuXuXuXuXuXuXuXuXuXuXuXuXuX",
"uXuXuXuXuXuXuXuXuXuXuXuXuXuXuXuXuXuXuXuXuXuXuXuXuXuXuXX 5 :.r 5 @ uXuXuXuXuXuXuXuXuXuXuXuXuXuXuXuXuXuXuXuXuXuXuXuXuXuXuXuXuXuXuX",
"uXuXuXuXuXuXuXuXuXuXuXuXuXuXuXuXuXuXuXuXuXuXuXuXuXuXuXX q r 5 q 5 uXuXuXuXuXuXuXuXuXuXuXuXuXuXuXuXuXuXuXuXuXuXuXuXuXuXuXuXuXuXuX",
"uXuXuXuXuXuXuXuXuXuXuXuXuXuXuXuXuXuXuXuXuXuXuXuXuXuXuX+ 4 @ @ 4 2 uXuXuXuXuXuXuXuXuXuXuXuXuXuXuXuXuXuXuXuXuXuXuXuXuXuXuXuXuXuXuX",
"uXuXuXuXuXuXuXuXuXuXuXuXuXuXuXuXuXuXuXuXuXuXuXuXuXuXuXO + uXuX+ uXuXuXuXuXuXuXuXuXuXuXuXuXuXuXuXuXuXuXuXuXuXuXuXuXuXuXuXuXuXuXuX",
"uXuXuXuXuXuXuXuXuXuXuXuXuXuXuXuXuXuXuXuXuXuXuXuXuXuXuX  uXuXuXuXuXuXuXuXuXuXuXuXuXuXuXuXuXuXuXuXuXuXuXuXuXuXuXuXuXuXuXuXuXuXuXuX",
"uXuXuXuXuXuXuXuXuXuXuXuXuXuXuXuXuXuXuXuXuXuXuXuXuXuXuXuXuXuXuXuXuXuXuXuXuXuXuXuXuXuXuXuXuXuXuXuXuXuXuXuXuXuXuXuXuXuXuXuXuXuXuXuX",
"uXuXuXuXuXuXuXuXuXuXuXuXuXuXuXuXuXuXuXuXuXuXuXuXuXuXuXuXuXuXuXuXuXuXuXuXuXuXuXuXuXuXuXuXuXuXuXuXuXuXuXuXuXuXuXuXuXuXuXuXuXuXuXuX",
"uXuXuXuXuXuXuXuXuXuXuXuXuXuXuXuXuXuXuXuXuXuXuXuXuXuXuXuXuXuXuXuXuXuXuXuXuXuXuXuXuXuXuXuXuXuXuXuXuXuXuXuXuXuXuXuXuXuXuXuXuXuXuXuX",
"uXuXuXuXuXuXuXuXuXuXuXuXuXuXuXuXuXuXuXuXuXuXuXuXuXuXuXuXuXuXuXuXuXuXuXuXuXuXuXuXuXuXuXuXuXuXuXuXuXuXuXuXuXuXuXuXuXuXuXuXuXuXuXuX",
"uXuXuXuXuXuXuXuXuXuXuXuXuXuXuXuXuXuXuXuXuXuXuXuXuXuXuXuXuXuXuXuXuXuXuXuXuXuXuXuXuXuXuXuXuXuXuXuXuXuXuXuXuXuXuXuXuXuXuXuXuXuXuXuX",
"uXuXuXuXuXuXuXuXuXuXuXuXuXuXuXuXuXuXuXuXuXuXuXuXuXuXuXuXuXuXuXuXuXuXuXuXuXuXuXuXuXuXuXuXuXuXuXuXuXuXuXuXuXuXuXuXuXuXuXuXuXuXuXuX",
"uXuXuXuXuXuXuXuXuXuXuXuXuXuXuXuXuXuXuXuXuXuXuXuXuXuXuXuXuXuXuXuXuXuXuXuXuXuXuXuXuXuXuXuXuXuXuXuXuXuXuXuXuXuXuXuXuXuXuXuXuXuXuXuX",
"uXuXuXuXuXuXuXuXuXuXuXuXuXuXuXuXuXuXuXuXuXuXuXuXuXuXuXuXuXuXuXuXuXuXuXuXuXuXuXuXuXuXuXuXuXuXuXuXuXuXuXuXuXuXuXuXuXuXuXuXuXuXuXuX",
"uXuXuXuXuXuXuXuXuXuXuXuXuXuXuXuXuXuXuXuXuXuXuXuXuXuXuXuXuXuXuXuXuXuXuXuXuXuXuXuXuXuXuXuXuXuXuXuXuXuXuXuXuXuXuXuXuXuXuXuXuXuXuXuX",
"uXuXuXuXuXuXuXuXuXuXuXuXuXuXuXuXuXuXuXuXuXuXuXuXuXuXuXuXuXuXuXuXuXuXuXuXuXuXuXuXuXuXuXuXuXuXuXuXuXuXuXuXuXuXuXuXuXuXuXuXuXuXuXuX",
"uXuXuXuXuXuXuXuXuXuXuXuXuXuXuXuXuXuXuXuXuXuXuXuXuXuXuXuXuXuXuXuXuXuXuXuXuXuXuXuXuXuXuXuXuXuXuXuXuXuXuXuXuXuXuXuXuXuXuXuXuXuXuXuX",
"uXuXuXuXuXuXuXuXuXuXuXuXuXuXuXuXuXuXuXuXuXuXuXuXuXuXuXuXuXuXuXuXuXuXuXuXuXuXuXuXuXuXuXuXuXuXuXuXuXuXuXuXuXuXuXuXuXuXuXuXuXuXuXuX",
"uXuXuXuXuXuXuXuXuXuXuXuXuXuXuXuXuXuXuXuXuXuXuXuXuXuXuXuXuXuXuXuXuXuXuXuXuXuXuXuXuXuXuXuXuXuXuXuXuXuXuXuXuXuXuXuXuXuXuXuXuXuXuXuX",
"uXuXuXuXuXuXuXuXuXuXuXuXuXuXuXuXuXuXuXuXuXuXuXuXuXuXuXuXuXuXuXuXuXuXuXuXuXuXuXuXuXuXuXuXuXuXuXuXuXuXuXuXuXuXuXuXuXuXuXuXuXuXuXuX"
};
