/* XPM */
static char *result[] = {
/* columns rows colors chars-per-pixel */
"64 64 203 2 ",
"   c #1A1E19",
".  c #131417",
"X  c #321D0D",
"o  c #1C2618",
"O  c #2A2917",
"+  c #382712",
"@  c #151827",
"#  c #1D0934",
"$  c #1E083A",
"%  c #1D0737",
"&  c #12132B",
"*  c #271D33",
"=  c #240A36",
"-  c #19243E",
";  c #1C2839",
":  c #16222C",
">  c #242835",
",  c #27313D",
"<  c #39322F",
"1  c #5A3E17",
"2  c #513638",
"3  c #5C4018",
"4  c #5B4732",
"5  c #685021",
"6  c #755B2C",
"7  c #2C0A4A",
"8  c #31134D",
"9  c #2E0951",
"0  c #330C53",
"q  c #3C0C5B",
"w  c #360958",
"e  c #3E195B",
"r  c #3B1358",
"t  c #30094E",
"y  c #1A2541",
"u  c #1C2945",
"i  c #1E284A",
"p  c #1F2D50",
"a  c #222C4A",
"s  c #362848",
"d  c #29344B",
"f  c #262C5A",
"g  c #2B3A5B",
"h  c #273659",
"j  c #323C5B",
"k  c #373557",
"l  c #282F61",
"z  c #2D3E63",
"x  c #2C3667",
"c  c #343C7C",
"v  c #303873",
"b  c #410C5E",
"n  c #45155F",
"m  c #4E3741",
"M  c #543A45",
"N  c #462C5A",
"B  c #4A2D5D",
"V  c #452958",
"C  c #483659",
"Z  c #450B61",
"A  c #4C0D66",
"S  c #4F0C68",
"D  c #520E69",
"F  c #590E6E",
"G  c #521269",
"H  c #57116C",
"J  c #5D0F71",
"K  c #4F1267",
"L  c #6C127B",
"P  c #621075",
"I  c #691179",
"U  c #482364",
"Y  c #512C67",
"T  c #4E3962",
"R  c #513D65",
"E  c #33415D",
"W  c #2E4269",
"Q  c #324264",
"!  c #33446B",
"~  c #394A6D",
"^  c #3A4C73",
"/  c #344777",
"(  c #3E5176",
")  c #37517F",
"_  c #3A527C",
"`  c #754842",
"'  c #7F6A41",
"]  c #574467",
"[  c #474A76",
"{  c #42557B",
"}  c #46597B",
"|  c #504A6A",
" . c #624D6B",
".. c #644B76",
"X. c #684D78",
"o. c #6C5C7B",
"O. c #675677",
"+. c #715978",
"@. c #6A4F71",
"#. c #6C6F74",
"$. c #77717D",
"%. c #54677A",
"&. c #8C5F74",
"*. c #976C75",
"=. c #90697A",
"-. c #A1717B",
";. c #363F80",
":. c #741381",
">. c #7B1486",
",. c #792B82",
"<. c #3B468A",
"1. c #3C4A8D",
"2. c #394584",
"3. c #3B5480",
"4. c #3B508A",
"5. c #3E4E92",
"6. c #3F5295",
"7. c #455A83",
"8. c #495D85",
"9. c #45558D",
"0. c #525981",
"q. c #404F95",
"w. c #42559A",
"e. c #43599D",
"r. c #405A94",
"t. c #7B4A82",
"y. c #6F5482",
"u. c #7C5D8B",
"i. c #755681",
"p. c #4D628B",
"a. c #4C6186",
"s. c #546787",
"d. c #44639B",
"f. c #406093",
"g. c #546B93",
"h. c #556C96",
"j. c #5C749C",
"k. c #597192",
"l. c #796289",
"z. c #63758E",
"x. c #7D6291",
"c. c #687798",
"v. c #455DA2",
"b. c #485EA3",
"n. c #4B69A4",
"m. c #4C6BAE",
"M. c #4865A6",
"N. c #5E76A2",
"B. c #4E6DB1",
"V. c #537ABB",
"C. c #5177B9",
"Z. c #4F71B4",
"A. c #627AA3",
"S. c #82168B",
"D. c #89178F",
"F. c #8E1792",
"G. c #8D1991",
"H. c #921995",
"J. c #9C1B9B",
"K. c #A11C9E",
"L. c #9E229C",
"P. c #8F3897",
"I. c #A12E9E",
"U. c #A51DA1",
"Y. c #AC1FA5",
"T. c #B01FA7",
"R. c #A927A2",
"E. c #B320A9",
"W. c #B021A7",
"Q. c #8B488D",
"!. c #825E8A",
"~. c #8E4496",
"^. c #84618D",
"/. c #997789",
"(. c #876492",
"). c #8A6897",
"_. c #A97A83",
"`. c #A27891",
"'. c #9C75A4",
"]. c #A177A8",
"[. c #6B83AD",
"{. c #6C86A8",
"}. c #7C92AA",
"|. c #6D87B2",
" X c #738DB3",
".X c #7994BC",
"XX c #7C99BE",
"oX c #7590B9",
"OX c #798CA0",
"+X c #7D98C1",
"@X c #8A878B",
"#X c #A98289",
"$X c #AA98B5",
"%X c #A589B3",
"&X c #B9A3BE",
"*X c #8887A4",
"=X c #DDA6A1",
"-X c #819EC3",
";X c #83A2C5",
":X c #8AA9CA",
">X c #87A5C8",
",X c #BAA4C0",
"<X c None",
/* pixels */
"<X<X<X<X<X<X<X<X<X<X<X<X<X<X<X<X<X<X<X<X<X<X<X<X<X<X<X<X<X<X<X<X<X<X<X<X<X<X<X<X<X<X<X<X<X<X<X<X<X<X<X<X<X<X<X<X<X<X<X<X<X<X<X<X",
"<X<X<X<X<X<X<X<X<X<X<X<X<X<X<X<X<X<X<X<X<X<X<X<X<X<X<X<X<X<X<X<X<X<X<X<X<X<X<X<X<X<X<X<X<X<X<X<X<X<X<X<X<X<X<X<X<X<X<X<X<X<X<X<X",
"<X<X<X<X<X<X<X<X<X<X<X<X<X<X<X<X<X<X<X<X<X<X<X<X<X<X<X<X<X<X<X<X<X<X<X<X<X<X<X<X<X<X<X<X<X<X<X<X<X<X<X<X<X<X<X<X<X<X<X<X<X<X<X<X",
"<X<X<X<X<X<X<X<X<X<X<X<X<X<X<X<X<X<X<X<X<X<X<X<X<X<X<X<X<X<X<X<X<X<X<X<X<X<X<X<X<X<X<X<X<X<X<X<X<X<X<X<X<X<X<X<X<X<X<X<X<X<X<X<X",
"<X<X<X<X<X<X<X<X<X<X<X<X<X<X<X<X<X<X<X<X<X<X<X<X<X<X<X<X<X<X$ $ $ $ $ $ $ <X<X<X<X<X<X<X<X<X<X<X<X<X<X<X<X<X<X<X<X<X<X<X<X<X<X<X",
"<X<X<X<X<X<X<X<X<X<X<X<X<X<X<X<X<X<X<X<X<X<X<X@.s # # # = S G G S S D S 0 $ <X<X% <  .<X<X<X<X<X<X<X<X<X<X<X<X<X<X<X<X<X<X<X<X<X",
"<X<X<X<X<X<X<X<X<X<X<X<X<X<X<X<X<X<X<X<X<X<X<X).Y K F Z q ,.~.,.G.G.,.~.Y 8 b F D Y (.C <X<X<X<X<X<X<X<X<X<X<X<X<X<X<X<X<X<X<X<X",
"<X<X<X<X<X<X<X<X<X<X<X<X<X<X<X<X<X<X<X<X<X<X<XY H H.K.L e ^.'.Q.L.L.~.'.(.e L U.H.H Y * <X<X<X<X<X<X<X<X<X<X<X<X<X<X<X<X<X<X<X<X",
"<X<X<X<X<X<X<X<X<X<X<X<X<X<X<X<X<X<X<X<X<X<X<Xq D.E.U.L U '.Q.R.F.G.R.Q.'.U I U.E.D.Z & <X<X<X<X<X<X<X<X<X<X<X<X<X<X<X<X<X<X<X<X",
"<X<X<X<X<X<X<X<X<X<X<X<X<X<X<X<X<X<X<X<X<X<X<XA F.E.U.L n X.R.E.W.W.T.R.t.e I K.E.H.S # <X<X<X<X<X<X<X<X<X<X<X<X<X<X<X<X<X<X<X<X",
"<X<X<X<X<X<X<X<X<X<X<X<X<X<X<X<X<X<X<X<X<X<Xq S.Y.T.U.L r t.R.E.E.E.T.R.t.e I U.T.T.S.b <X<X<X<X<X<X<X<X<X<X<X<X<X<X<X<X<X<X<X<X",
"<X<X<X<X<X<X<X<X<X<X<X<X<X<X<X<X<X<X<X<X<X<Xb F.E.E.K.L U '.!.R.W.W.R.Q.'.U I K.T.T.H.b <X<X<X<X<X<X<X<X<X<X<X<X<X<X<X<X<X<X<X<X",
"<X<X<X<X<X<X<X<X<X<X<X<X<X<X<X<X<X<X<X<X<X<XS U.E.T.Y.L r u.].Q.R.W.Q.].^.e L U.T.T.T.F <X<X<X<X<X<X<X<X<X<X<X<X<X<X<X<X<X<X<X<X",
"<X<X<X<X<X<X<X<X<X<X<X<X<X<X<X<X<X<X<X<X<X<XD T.E.E.U.L q ,.P.L.W.E.I.P.,.q I K.T.T.T.F <X<X<X<X<X<X<X<X<X<X<X<X<X<X<X<X<X<X<X<X",
"<X<X<X<X<X<X<X<X<X<X<X<X<X<X<X<X<X<X<X<X<X<XA J.E.T.U.L q >.J.T.E.E.W.K.>.q L U.E.T.K.S <X<X<X<X<X<X<X<X<X<X<X<X<X<X<X<X<X<X<X<X",
"<X<X<X<X<X<X<X<X<X<X<X<X<X<X<X<X<X<X<X<X<X<Xq L J.Y.F.P q >.W.E.E.E.E.E.S.q J D.T.K.:.b <X<X<X<X<X<X<X<X<X<X<X<X<X<X<X<X<X<X<X<X",
"<X<X<X<X<X<X<X<X<X<X<X<X<X<X<X<X<X<X<X<X<X<X0 J S.H.L Z F F.J.E.E.T.T.J.H.P b L H.S.P w <X<X<X<X<X<X<X<X<X<X<X<X<X<X<X<X<X<X<X<X",
"<X<X<X<X<X<X<X<X<X<X<X<X<X<X<X<X<X<X<X<X<X<X7 S L L J b G.H.>.U.K.K.Y.>.H.F.b J L L G 7 <X<X<X<X<X<X<X<X<X<X<X<X<X<X<X<X<X<X<X<X",
"<X<X<X<X<X<X<X<X<X<X<X<X<X<X<X<X<X<X<X<X<X<X<X7 Z Z Z D H.L P H.:.:.H.I L H.H b Z Z 7 <X<X<X<X<X<X<X<X<X<X<X<X<X<X<X<X<X<X<X<X<X",
"<X<X<X<X<X<X<X<X<X<X<X<X<X<X<X<X<X<X<X<X<X<X<X<Xt 0 q L L D J :.F F L P D L L b 0 9 <X<X<X<X<X<X<X<X<X<X<X<X<X<X<X<X<X<X<X<X<X<X",
"<X<X<X<X<X<X<X<X<X<X<X<X<X<X<Xu z g g g d <X<X<X0 n V G Z q L L D D L L q Z G V n t <X<X<X<XE h g z a <X<X<X<X<X<X<X<X<X<X<X<X<X",
"<X<X<X<X<X<X<X<X<X<X<X<X<X<Xh a.[.A.h.j.g.a <X<X<X8 N N 8 0 G G q 0 G G 0 0 N N 8 # <X<X<Xp.N.g.A.[.p.g <X<X<X<X<X<X<X<X<X<X<X<X",
"<X<X<X<X<X<X<X<X<X<X<X<X<X( N..X>X;X-X;XXXp.<X<X<X& T y.B N U B N N B B N N y.T @ <X<X<Xa.XX;X+X;X>XXXj.( <X<X<X<X<X<X<X<X<X<X<X",
"<X<X<X<X<X<X<X<X<X<X<X<X~ N.+X:X-X.X.X-X:XXXp.; <X. k ] u.i.x.!.^.u.x.x.u.u.] k @ <X; a.XX:X+X.X.X-X>X+XA.^ <X<X<X<X<X<X<X<X<X<X",
"<X<X<X<X<X<X<X<X<X<X<X- p.XX:X+Xj.8.N.[.XX+XXXs.o ; c.0.X.).(.(.(.^.(.(.).....A.;   %.XX+XXX[.N.p.g.;X:XXXg.- <X<X<X<X<X<X<X<X<X",
"<X<X<X<X<X<X<X<X<X<X<X{  XoXoX|.{ ^ 8./ a.j.k.c.o >  X[.c.O.u.!.).).!.!.X.c.[..X,   z.k.j.p.^ 7.^ _ |.oX X X{ <X<X<X<X<X<X<X<X<X",
"<X<X<X<X<X<X<X<X<X<X- j.+Xk.g.p.) 3.z z ) ! ! s.  @ 7.a.0.R u...X.X...u.R a.a.7.:   %.^ W 3.W Q _ 3.p.g.g.+X{.: <X<X<X<X<X<X<X<X",
"<X<X<X<X<X<X<X<X<X<X~ k.|.{ W ) e.d.3.d.n.) ) Q   @ / z k ..+.=.&.&.=.i...k x / @   g ) ) d.d.) d.d._ ! ( |.k.} <X<X<X<X<X<X<X<X",
"<X<X<X<X<X<X<X<X<X- {.} { 7./ f.m.m.C.B.B.C.m.! d h v.9.T X.+.#X#X_.#XO.+.R 2.v.h d ! n.C.B.B.C.B.B.d./ 3.7.{ {.u <X<X<X<X<X<X<X",
"<X<X<X<X<X<X<X<X<Xj |.} h d.V.B.e.e.M.e.w.m.V.Z.v.d.9.[ C  .#.g Q W g #. .C [ 9.v.v.B.V.B.w.v.M.v.w.m.V.n.h (  XE <X<X<X<X<X<X<X",
"<X<X<X<X<X<X<X<X<XA.|.( 4.m.Z.M.1.w.v.5.<.w.M.v.<.1.^ $.o.@XQ W n.n.! E @Xo.l.[ <.<.v.M.w.<.1.v.w.1.v.B.m.4.^ [.{.u <X<X<X<X<X<X",
"<X<X<X<X<X<X<X<Xy j.} / <.5.v.6.1.6.v.1.;.;.6.1.v l * ] %X$X~ n.q.q.n.! $X$X .> l v <.6.2.;.1.w.w.<.e.v.6.<.2.^ A.u <X<X<X<X<X<X",
"<X<X<X<X<X<X<X<Xy h.^ x c <.<.2.c 2.5.;.l i c x <X@ C %X&XO.z M.M.v.M.z O.&X%XT <X<Xl c a f ;.5.<.c ;.1.<.c x ! j.u <X<X<X<X<X<X",
"<X<X<X<X<X<X<X<Xy 8.! - <Xl ;.f <Xf ;.l <X<X<X<X<X<X] &Xl.g z n.q.q.n.W h #.,X] <X<X<X<X<X<Xl ;.f <Xf ;.x <X<XW p.u <X<X<X<X<X<X",
"<X<X<X<X<X<X<X<Xy 7.Q <X<X<X<X<X<X<X<X<X<X<X<X<X<X<X> @.x.Q 6.) w.e./ 6.z x.+.* <X<X<X<X<X<X<X<X<X<X<X<X<X<X<Xz 8.i <X<X<X<X<X<X",
"<X<X<X<X<X<X<X<X<Xh u <X<X<X<X<X<X<X<X<X<X<X<X<X<X<X<X2 ] k 3.*X^ ! | ! k ] M <X<X<X<X<X<X<X<X<X<X<X<X<X<X<X<X- g <X<X<X<X<X<X<X",
"<X<X<X<X<X<X<X<X<X<X<X<X<X<X<X<X<X<X<X<X<X<X<X<X<X<X<X` -./.C #.k s V k /.*.` <X<X<X<X<X<X<X<X<X<X<X<X<X<X<X<X<X<X<X<X<X<X<X<X<X",
"<X<X<X<X<X<X<X<X<X<X<X<X<X<X<X<X<X<X<X<X<X<X<X<X<X<X<X2 =.=X*.M * * 2 =.=X/.2 <X<X<X<X<X<X<X<X<X<X<X<X<X<X<X<X<X<X<X<X<X<X<X<X<X",
"<X<X<X<X<X<X<X<X<X<X<X<X<X<X<X<X<X<X<X<X<X<X<X<X<X<X<X. g `.#XM <X<X2 /.`.j <X<X<X<X<X<X<X<X<X<X<X<X<X<X<X<X<X<X<X<X<X<X<X<X<X<X",
"<X<X<X<X<X<X<X<X<X<X<X<X<X<X<X<X<X<X<X<X<X<X<X<X<X<X<X<Xp 2.2.p <X<Xa c q.g <X<X<X<X<X<X<X<X<X<X<X<X<X<X<X<X<X<X<X<X<X<X<X<X<X<X",
"<X<X<X<X<X<X<X<X<X<X<X<X<X<X<X<X<X<X<X<X<X<X<X<X<X<X<X<Xh e./ E <X<Xj / v.x <X<X<X<X<X<X<X<X<X<X<X<X<X<X<X<X<X<X<X<X<X<X<X<X<X<X",
"<X<X<X<X<X<X<X<X<X<X<X<X<X<X<X<X<X<X<X<X<X<X<X<X<X<X<X<X~ n.( z.<X<Xs.{ h.^ <X<X<X<X<X<X<X<X<X<X<X<X<X<X<X<X<X<X<X<X<X<X<X<X<X<X",
"<X<X<X<X<X<X<X<X<X<X<X<X<X<X<X<X<X<X<X<X<X<X<X<X<X<X<X, OX}.{., <X<X, z..X}.< <X<X<X<X<X<X<X<X<X<X<X<X<X<X<X<X<X<X<X<X<X<X<X<X<X",
"<X<X<X<X<X<X<X<X<X<X<X<X<X<X<X<X<X<X<X<X<X<X<X<X<X<X<X6 &.3 + <X<X<X<X2 4 ' 6 <X<X<X<X<X<X<X<X<X<X<X<X<X<X<X<X<X<X<X<X<X<X<X<X<X",
"<X<X<X<X<X<X<X<X<X<X<X<X<X<X<X<X<X<X<X<X<X<X<X<X<X<XO 3 1 + X <X<X<X<XX + 1 3 O <X<X<X<X<X<X<X<X<X<X<X<X<X<X<X<X<X<X<X<X<X<X<X<X",
"<X<X<X<X<X<X<X<X<X<X<X<X<X<X<X<X<X<X<X<X<X<X<X<X<X<Xo + 5 O . <X<X<X<X<XO 5 + o <X<X<X<X<X<X<X<X<X<X<X<X<X<X<X<X<X<X<X<X<X<X<X<X",
"<X<X<X<X<X<X<X<X<X<X<X<X<X<X<X<X<X<X<X<X<X<X<X<X<X<X<X<X+ <X<X<X<X<X<X<X<X<X<X<X<X<X<X<X<X<X<X<X<X<X<X<X<X<X<X<X<X<X<X<X<X<X<X<X",
"<X<X<X<X<X<X<X<X<X<X<X<X<X<X<X<X<X<X<X<X<X<X<X<X<X<X<X<X<X<X<X<X<X<X<X<X<X<X<X<X<X<X<X<X<X<X<X<X<X<X<X<X<X<X<X<X<X<X<X<X<X<X<X<X",
"<X<X<X<X<X<X<X<X<X<X<X<X<X<X<X<X<X<X<X<X<X<X<X<X<X<X<X<X<X<X<X<X<X<X<X<X<X<X<X<X<X<X<X<X<X<X<X<X<X<X<X<X<X<X<X<X<X<X<X<X<X<X<X<X",
"<X<X<X<X<X<X<X<X<X<X<X<X<X<X<X<X<X<X<X<X<X<X<X<X<X<X<X<X<X<X<X<X<X<X<X<X<X<X<X<X<X<X<X<X<X<X<X<X<X<X<X<X<X<X<X<X<X<X<X<X<X<X<X<X",
"<X<X<X<X<X<X<X<X<X<X<X<X<X<X<X<X<X<X<X<X<X<X<X<X<X<X<X<X<X<X<X<X<X<X<X<X<X<X<X<X<X<X<X<X<X<X<X<X<X<X<X<X<X<X<X<X<X<X<X<X<X<X<X<X",
"<X<X<X<X<X<X<X<X<X<X<X<X<X<X<X<X<X<X<X<X<X<X<X<X<X<X<X<X<X<X<X<X<X<X<X<X<X<X<X<X<X<X<X<X<X<X<X<X<X<X<X<X<X<X<X<X<X<X<X<X<X<X<X<X",
"<X<X<X<X<X<X<X<X<X<X<X<X<X<X<X<X<X<X<X<X<X<X<X<X<X<X<X<X<X<X<X<X<X<X<X<X<X<X<X<X<X<X<X<X<X<X<X<X<X<X<X<X<X<X<X<X<X<X<X<X<X<X<X<X",
"<X<X<X<X<X<X<X<X<X<X<X<X<X<X<X<X<X<X<X<X<X<X<X<X<X<X<X<X<X<X<X<X<X<X<X<X<X<X<X<X<X<X<X<X<X<X<X<X<X<X<X<X<X<X<X<X<X<X<X<X<X<X<X<X",
"<X<X<X<X<X<X<X<X<X<X<X<X<X<X<X<X<X<X<X<X<X<X<X<X<X<X<X<X<X<X<X<X<X<X<X<X<X<X<X<X<X<X<X<X<X<X<X<X<X<X<X<X<X<X<X<X<X<X<X<X<X<X<X<X",
"<X<X<X<X<X<X<X<X<X<X<X<X<X<X<X<X<X<X<X<X<X<X<X<X<X<X<X<X<X<X<X<X<X<X<X<X<X<X<X<X<X<X<X<X<X<X<X<X<X<X<X<X<X<X<X<X<X<X<X<X<X<X<X<X",
"<X<X<X<X<X<X<X<X<X<X<X<X<X<X<X<X<X<X<X<X<X<X<X<X<X<X<X<X<X<X<X<X<X<X<X<X<X<X<X<X<X<X<X<X<X<X<X<X<X<X<X<X<X<X<X<X<X<X<X<X<X<X<X<X",
"<X<X<X<X<X<X<X<X<X<X<X<X<X<X<X<X<X<X<X<X<X<X<X<X<X<X<X<X<X<X<X<X<X<X<X<X<X<X<X<X<X<X<X<X<X<X<X<X<X<X<X<X<X<X<X<X<X<X<X<X<X<X<X<X",
"<X<X<X<X<X<X<X<X<X<X<X<X<X<X<X<X<X<X<X<X<X<X<X<X<X<X<X<X<X<X<X<X<X<X<X<X<X<X<X<X<X<X<X<X<X<X<X<X<X<X<X<X<X<X<X<X<X<X<X<X<X<X<X<X",
"<X<X<X<X<X<X<X<X<X<X<X<X<X<X<X<X<X<X<X<X<X<X<X<X<X<X<X<X<X<X<X<X<X<X<X<X<X<X<X<X<X<X<X<X<X<X<X<X<X<X<X<X<X<X<X<X<X<X<X<X<X<X<X<X",
"<X<X<X<X<X<X<X<X<X<X<X<X<X<X<X<X<X<X<X<X<X<X<X<X<X<X<X<X<X<X<X<X<X<X<X<X<X<X<X<X<X<X<X<X<X<X<X<X<X<X<X<X<X<X<X<X<X<X<X<X<X<X<X<X",
"<X<X<X<X<X<X<X<X<X<X<X<X<X<X<X<X<X<X<X<X<X<X<X<X<X<X<X<X<X<X<X<X<X<X<X<X<X<X<X<X<X<X<X<X<X<X<X<X<X<X<X<X<X<X<X<X<X<X<X<X<X<X<X<X",
"<X<X<X<X<X<X<X<X<X<X<X<X<X<X<X<X<X<X<X<X<X<X<X<X<X<X<X<X<X<X<X<X<X<X<X<X<X<X<X<X<X<X<X<X<X<X<X<X<X<X<X<X<X<X<X<X<X<X<X<X<X<X<X<X",
"<X<X<X<X<X<X<X<X<X<X<X<X<X<X<X<X<X<X<X<X<X<X<X<X<X<X<X<X<X<X<X<X<X<X<X<X<X<X<X<X<X<X<X<X<X<X<X<X<X<X<X<X<X<X<X<X<X<X<X<X<X<X<X<X"
};
