/* XPM */
static char *result[] = {
/* columns rows colors chars-per-pixel */
"64 64 30 1 ",
"  c #7B007B",
". c #7C007C",
"X c #7C017C",
"o c #7E007E",
"O c #7F007F",
"+ c #7E037E",
"@ c #800080",
"# c #800180",
"$ c #810181",
"% c #810281",
"& c #800780",
"* c #820482",
"= c #840784",
"- c #830B83",
"; c #820C82",
": c #881988",
"> c #8B188B",
", c #8D188D",
"< c #903090",
"1 c #933293",
"2 c #913591",
"3 c #953195",
"4 c #973497",
"5 c #973897",
"6 c #9C349C",
"7 c #9C3C9C",
"8 c #A047A0",
"9 c #A75BA7",
"0 c #AE69AE",
"q c None",
/* pixels */
"qqqqqqqqqqqqq .....................................6qqqqqqqqqqqq",
"qqqqqqqqqqqqo@@@@@@@@@@@@@@@@@@@@@@@@@@@@@@@@@@@@@@@qqqqqqqqqqqq",
"qqqqqqqqqqqqo@@@@@@@@@@@@@@@@@@@@@@@@@@@@@@@@@@@@@@@qqqqqqqqqqqq",
"qqqqqqqqqqqqo@Oqqqqqqqqqqqqqqqqqqqqqqqqqqqqqqqqqq-@@qqqqqqqqqqqq",
"qqqqqqqqqqqqo@Oqqqqqqqqqqqqqqqqqqqqqqqqqqqqqqqqqq@@@qqqqqqqqqqqq",
"qqqqqqqqqqqqo@Oqqqqqqqqqqqqqqqqqqqqqqqqqqqqqqqq3@@@@qqqqqqqqqqqq",
"qqqqqqqqqqqqo@OqqqqqqqqqqqqqqqqqqqqqqqqqqqqqqqX@@@@@qqqqqqqqqqqq",
"qqqqqqqqqqqqo@Oqqqqqqqqqqqqqqqqqqqqqqqqqqqqqq@@@@@@@qqqqqqqqqqqq",
"qqqqqqqqqqqqo@Oqqqqqqqqqqqqqqqqqqqqqqqqqqqq:@@@@@@@@qqqqqqqqqqqq",
"qqqqqqqqqqqqo@Oqqqqqqqqqqqqqqqqqqqqqqqqqqq$@@@@@@@@@qqqqqqqqqqqq",
"qqqqqqqqqqqqo@Oqqqqqqqqqqqqqqqqqqqqqqqqq7@@@@@@@@@@@qqqqqqqqqqqq",
"qqqqqqqqqqqqo@Oqqqqqqqqqqqqqqqqqqqqqqqq+@@@@@@@@@@@@qqqqqqqqqqqq",
"qqqqqqqqqqqqo@Oqqqqqqqqqqqqqqqqqqqqqqq@@@@@@@@@@@@@@qqqqqqqqqqqq",
"qqqqqqqqqqqqo@Oqqqqqqqqqqqqqqqqqqqqq5@@@@@@@@@@@@@@@qqqqqqqqqqqq",
"qqqqqqqqqqqqo@Oqqqqqqqqqqqqqqqqqqqqo@@@@@@@@@@@@@@@@qqqqqqqqqqqq",
"qqqqqqqqqqqqo@Oqqqqqqqqqqqqqqqqqqq@@@@@@@@@@@@@@@@@@qqqqqqqqqqqq",
"qqqqqqqqqqqqo@Oqqqqqqqqqqqqqqqqqqq@@@@@@@@@@@@@@@@@@qqqqqqqqqqqq",
"qqqqqqqqqqqqo@Oqqqqqqqqqqqqqqqqqqq@@@@@@@@@@@@@@@@@@qqqqqqqqqqqq",
"qqqqqqqqqqqqo@Oqqqqqqqqqqqqqqqqqqq@@@@@@@@@@@@@@@@@@qqqqqqqqqqqq",
"qqqqqqqqqqqqo@Oqqqqqqqqqqqqqqqqqqq@@@@@@@@@@@@@@@@@@qqqqqqqqqqqq",
"qqqqqqqqqqqqo@Oqqqqqqqqqqqqqqqqqqq@@@@@@@@@@@@@@@@@@qqqqqqqqqqqq",
"qqqqqqqqqqqqo@Oqqqqqqqqqqqqqqqqqqq@@@@@@@@@@@@@@@@@@qqqqqqqqqqqq",
"qqqqqqqqqqqqo@Oqqqqqqqqqqqqqqqqqqq@@@@@@@@@@@@@@@@@@qqqqqqqqqqqq",
"qqqqqqqqqqqqo@Oqqqqqqqqqqqqqqqqqqq@@@@@@@@@@@@@@@@@@qqqqqqqqqqqq",
"qqqqqqqqqqqqo@Oqqqqqqqqqqqqqqqqqqq@@@@@@@@@@@@@@@@@@qqqqqqqqqqqq",
"qqqqqqqqqqqqo@Oqqqqqqqqqqqqqqqqqqq@@@@@@@@@@@@@@@@@@qqqqqqqqqqqq",
"qqqqqqqqqqqqo@Oqqqqqqqqqqqqqqqqqqq@@@@@@@@@@@@@@@@@@qqqqqqqqqqqq",
"qqqqqqqqqqqqo@Oqqqqqqqqqqqqqqqqqqq@@@@@@@@@@@@@@@@@@qqqqqqqqqqqq",
"qqqqqqqqqqqqo@Oqqqqqqqqqqqqqqqqqqq@@@@@@@@@@@@@@@@@@qqqqqqqqqqqq",
"qqqqqqqqqqqqo@Oqqqqqqqqqqqqqqqqqqq@@@@@@@@@@@@@@@@@@qqqqqqqqqqqq",
"qqqqqqqqqqqqo@Oqqqqqqqqqqqqqqqqqqq@@@@@@@@@@@@@@@@@@qqqqqqqqqqqq",
"qqqqqqqqqqqqo@Oqqqqqqqqqqqqqqqqqqq@@@@@@@@@@@@@@@@@@qqqqqqqqqqqq",
"qqqqqqqqqqqqo@Oqqqqqqqqqqqqqqqqqqq@@@@@@@@@@@@@@@@@@qqqqqqqqqqqq",
"qqqqqqqqqqqqo@Oqqqqqqqqqqqqqqqqqqq@@@@@@@@@@@@@@@@@@qqqqqqqqqqqq",
"qqqqqqqqqqqqo@Oqqqqqqqqqqqqqqqqqqq@@@@@@@@@@@@@@@@@@qqqqqqqqqqqq",
"qqqqqqqqqqqqo@Oqqqqqqqqqqqqqqqqqqq@@@@O>@@@@@@@@@@@@qqqqqqqqqqqq",
"qqqqqqqqqqqqo@Oqqqqqqqqqqqqqqqqqqq@@@@qq0@@@@@@@@@@@qqqqqqqqqqqq",
"qqqqqqqqqqqqo@Oqqqqqqqqqqqqqqqqqqq@@42qqq@@@@@@@@@@@qqqqqqqqqqqq",
"qqqqqqqqqqqqo@Oqqqqqqqqqqqqqqqqqqq@@qqqqq@@@@@@@@@@@qqqqqqqqqqqq",
"qqqqqqqqqqqqo@Oqqqqqqqqqqqqqqqqqqq@@@@qqq@@@@@@@@@@@qqqqqqqqqqqq",
"qqqqqqqqqqqqo@Oqqqqqqqqqqqqqqqqqqq@@@@=q;@@@@@@@@@@@qqqqqqqqqqqq",
"qqqqqqqqqqqqo@Oqqqqqqqqqqqqqqqqqqq@@@@@@@@@@@@@@@@@@qqqqqqqqqqqq",
"qqqqqqqqqqqqo@Oqqqqqqqqqqqqqqqqqqq@@@@@@@@@@@@@@@@@@qqqqqqqqqqqq",
"qqqqqqqqqqqqo@Oqqqqqqqqqqqqqqqqqqq@@@@@@@@@@@@@@@@@@qqqqqqqqqqqq",
"qqqqqqqqqqqqo@Oqqqqqqqqqqqqqqqqqqq@@@@@@@@@@@@@@@@@@qqqqqqqqqqqq",
"qqqqqqqqqqqqo@Oqqqqqqqqqqqqqqqqqqq@@@@@@@@@@@@@@@@@@qqqqqqqqqqqq",
"qqqqqqqqqqqqo@Oqqqqqqqqqqqqqqqqqqq@@@@@@@@@@@@@@@@@@qqqqqqqqqqqq",
"qqqqqqqqqqqqo@Oqqqqqqqqqqqqqqqqqqq@@@@@@@@@@@@@@@@@@qqqqqqqqqqqq",
"qqqqqqqqqqqqo@Oqqqqqqqqqqqqqqqqqqq@@@@@@@@@@@@@@@@@@qqqqqqqqqqqq",
"qqqqqqqqqqqqo@Oqqqqqqqqqqqqqqqqqqq@@@@@@@@@@@@@@@@@@qqqqqqqqqqqq",
"qqqqqqqqqqqqo@Oqqqqqqqqqqqqqqqqqqq@@@@@@@@@@@@@@@@@@qqqqqqqqqqqq",
"qqqqqqqqqqqqo@Oqqqqqqqqqqqqqqqqqqq@@@@@@@@@@@@@@@@@@qqqqqqqqqqqq",
"qqqqqqqqqqqqo@$qqqqqqqqqqqqqqqqqqq@@@@@@@@@@@@@@@%@oqqqqqqqqqqqq",
"qqqqqqqqqqqqq1qqqqqqqqqqqqqqqqqqqq@@@@@@@@@@@@@*qq<qqqqqqqqqqqqq",
"qqqqqqqqqqqqqqqqqqqqqqqqqqqqqqqqqq@@@@@@@@@@@@9qqqqqqqqqqqqqqqqq",
"qqqqqqqqqqqqqqqqqqqqqqqqqqqqqqqqqq@@@@@@@@@@oqqqqqqqqqqqqqqqqqqq",
"qqqqqqqqqqqqqqqqqqqqqqqqqqqqqqqqqq@@@@@@@@@:qqqqqqqqqqqqqqqqqqqq",
"qqqqqqqqqqqqqqqqqqqqqqqqqqqqqqqqqq@@@@@@@Oqqqqqqqqqqqqqqqqqqqqqq",
"qqqqqqqqqqqqqqqqqqqqqqqqqqqqqqqqqq@@@@@@&qqqqqqqqqqqqqqqqqqqqqqq",
"qqqqqqqqqqqqqqqqqqqqqqqqqqqqqqqqqq@@@@@,qqqqqqqqqqqqqqqqqqqqqqqq",
"qqqqqqqqqqqqqqqqqqqqqqqqqqqqqqqqqq@@@#qqqqqqqqqqqqqqqqqqqqqqqqqq",
"qqqqqqqqqqqqqqqqqqqqqqqqqqqqqqqqqq@@oqqqqqqqqqqqqqqqqqqqqqqqqqqq",
"qqqqqqqqqqqqqqqqqqqqqqqqqqqqqqqqqq@8qqqqqqqqqqqqqqqqqqqqqqqqqqqq",
"qqqqqqqqqqqqqqqqqqqqqqqqqqqqqqqqqqqqqqqqqqqqqqqqqqqqqqqqqqqqqqqq"
};
