/* XPM */
static char *result[] = {
/* columns rows colors chars-per-pixel */
"64 64 115 2 ",
"   c #020103",
".  c #0A0205",
"X  c #030902",
"o  c #0C0806",
"O  c #05010A",
"+  c #0A020C",
"@  c #060908",
"#  c #0C090D",
"$  c #11030E",
"%  c #150A0F",
"&  c #060112",
"*  c #0C0212",
"=  c #0D0913",
"-  c #0D0319",
";  c #0E0B19",
":  c #120415",
">  c #1A0515",
",  c #120915",
"<  c #1B0814",
"1  c #14041B",
"2  c #1A051D",
"3  c #150A1B",
"4  c #1A0B1D",
"5  c #0F1014",
"6  c #1A121D",
"7  c #200B1B",
"8  c #150422",
"9  c #1B0523",
"0  c #160C21",
"q  c #1C0B23",
"w  c #14052D",
"e  c #1D052A",
"r  c #170A2A",
"t  c #1E0B2A",
"y  c #161320",
"u  c #1D1324",
"i  c #161822",
"p  c #1D122B",
"a  c #180530",
"s  c #1D0832",
"d  c #1C1030",
"f  c #220525",
"g  c #210C25",
"h  c #2A0827",
"j  c #22062C",
"k  c #230C2C",
"l  c #2A0D2E",
"z  c #221226",
"x  c #291422",
"c  c #241927",
"v  c #25122C",
"b  c #2A132D",
"n  c #251B2B",
"m  c #2B1A2E",
"M  c #30142E",
"N  c #240532",
"B  c #2A0633",
"V  c #260C31",
"C  c #2A0C34",
"Z  c #250539",
"A  c #2C063A",
"S  c #240E39",
"D  c #2D0D3A",
"F  c #310D35",
"G  c #310E3D",
"H  c #261232",
"J  c #2B1234",
"K  c #251831",
"L  c #2C1933",
"P  c #26103B",
"I  c #2D123A",
"U  c #2D193A",
"Y  c #321535",
"T  c #301D36",
"R  c #32133C",
"E  c #39143D",
"W  c #321B3D",
"Q  c #391D3F",
"!  c #35203C",
"~  c #2D0D43",
"^  c #340E43",
"/  c #390E45",
"(  c #350E4A",
")  c #3A0E4A",
"_  c #2E1342",
"`  c #2F1B45",
"'  c #351343",
"]  c #391345",
"[  c #351943",
"{  c #3A1A44",
"}  c #35124A",
"|  c #3C144B",
" . c #371A4C",
".. c #3C1A4A",
"X. c #3E0F51",
"o. c #3E1351",
"O. c #3E1C52",
"+. c #3E165C",
"@. c #3B2244",
"#. c #39204B",
"$. c #411747",
"%. c #41154C",
"&. c #421B4E",
"*. c #441553",
"=. c #481555",
"-. c #441A53",
";. c #4A1A56",
":. c #45155A",
">. c #49155B",
",. c #46195A",
"<. c #4A195C",
"1. c #44224C",
"2. c #4C1661",
"3. c #4D1961",
"4. c #501C66",
/* pixels */
"O * +   C J k C 2 + I J u q I 1 D ] D ' t C C O   D , , D G W 6 I O +   R I J = . e u   + C C A $ k , +   I 2 C k /   ' ' { G : ",
"q . C O R + 2 R R n O P * + R J v X.  W o.'   4   I - 4 3 1 8 ' z 4 O v C . O       + 3 - P k { G z v E * O + q . Y     q q g   ",
"  q / q V I { C ' e p C x O e 1 ^ l g    .G G ' 2 I q 8 0 9 ^  .| q k : ] R q   &     9 $.I G ' q W   O + & I 9 j H   +     A g ",
"9 + G k _ g 1 ' / D - S 4 q C   2 1 *.' 9 s ' V   R j I 9 $.1 R D D - b A ' t   ' , * / k k O R D G q ^ L J J J   D     k i * E ",
"V B +.] ' ] -.*.C C R *.*.*.j *.-.*.:.W k ' ' G R } R J 9 : + = + O                 = 9 & 1 } g J & ..J q j q [ ] k     ) O t C ",
"J v   ,   ] q k F g   = O = 1 -.O ..*.{ + . | O D   R ..+ J   ' D ' ^ + C + -.k D   F g 3   4 j / | R N V ^ 1 | A } L J k g o 2 ",
"  : 1 j L : k   ^ D   O ' L J G g   8 ] J C ' : Y <.^ J & } V O V ] + + 4   # + , b q   +   3   = # , O 8   - * k     ` .   : 1 ",
", = 9 { j , *.B ' R * ; ..3         * ' J   + u W + + :.8 D l : q f = * R V . I , D W f : l   L + [ q j : V :   I + .   + u k 1 ",
"- ' $ O v + = 0 '   { - C i -.. O O -.] B . $   $ 2 1 1 V | D A q |   E g 9 j = - g & * o.  *     2   q   6 '   6 i     # I V 9 ",
"O           +   + =       , F c V O t k 3 u k ` j   k ^   O e z   -   (   Y 3   %.+ (  .1 4 l   ] O 1 : :   k .   j #.  1   k r ",
"C * 1 >.  2   3 C |   .   I ' | + o : | P j $.-.| ) G k ' :.>.3.<.<.:.) } ^ ' | -.D C l / / ' ' E I l C u :           O #     q ",
"f ' q J F , . +   & z & 1 | D |     J V 2 { G | 3 ] G   @.  e     ' R G | '   O F Y W . J ] + + 9 C L V   2 L 3 v     + C     O ",
"'       r     1 + O + 0 1 U H : C k 0 '       0 + } 2 k %     q %.  s = C J j O.8 o _ P     1 ' R ... D I W g C ] = * =     t W ",
"& ' * J R   1 D &.z ' ,.& 2 '   G - J L I { : @.l / C   k   t 9 ]   e   G H &.L + D e ..^ j + | < &.k   [ &.& - t + G *   . =   ",
"' : 9 = l   - P G > &.*.2.g | / - +   +.5 * J   ' + C   &.&.: E ' *.  k 1 J   q     ' 4 ~ O R / R V = R /   T q   9 0     ^ q   ",
"A | o.>.,.o.' G / ) P j I ' D ' q k 3 , q U k q C D 1   +   P D R k 4 2 O     +     +   - : u / ] z t C E   o } > C e V q     3 ",
"W Q t q . D C C ' D 7 O 8   >.| D ,.{ C 1 p p / o.u W N '  .F ' & ' 1 -.  O o.) l : *.k | R R ,.&.:.,.,.R :.:.:.-.=.:.o.-.*.| ] ",
"q - R 8 { k P ' q 8 b   3 J J E * &.  ] V k F H } 5   > o.J V a , : A u + G + k * , !   & R + < g   ..o O : C J O   N q 9 : V ; ",
"R f j 0 ' J C ..I >.. 8 G l ' ] -.U + J / 1 m * M . 1 + n =.C ] : + 1 + | *   : 9 j 1   . k 1.+ | ] ^ =   + q 3 =.4 V q j 8 I   ",
"  q J g k H k   H I R b -.1 V 3 | l O 2   | n   P 1 / *.| R D ) 4 H H ..O Q e . g : m   , ,.1   D y D g   , ]   1     g u O V V ",
"          = 0   3 6 q 4 J ' H | &.8 I G + U   O R ' Y *.' + l R e ' 1 G A I ..O k k     ,.  e q ^   ( : 1   J k 3 1 C + + R l   ",
"W O.q   3   + + 2 L g q H &.] F C q + ) 9 d   & 1   ] e ' G G k :.| G j ] C ' _ %.I + 2 : + : q + +     3       o O     - R C z ",
"H / 1 e v G   + | { 0 E 1 q ~ J + . : >.  %.| {   k $ O > O 2 -.7 j     G C ~ O n u 2 O 9 3 k -.{   R & & > O O 1 v g / = 2 , { ",
"k . + G : b 6 + J   + F @.q G /   ' / =.| O   } R 4 k + n `   A G : : G :  .,   k : + V b ] ' J ;.2 2 g & g   3 L 9 { N k .   1 ",
"{   C 9 k t { I R f R ' O H V G { f   g L   ! C   9 ) g + + , <.Y =.8 8 { { + N L $ ' ~ W Z I + } o.O [ * 3 > V A C : + C q : v ",
"    O   * 1 $ v o R k ' I [ g D * +   1 K 3 } O  .6 k D G q * f D P ] C 9 + : k 8 G j ' k q ^ G B   9 8     } | D R   + R V V U ",
"] O.1 | :.=.=.<.<.:.*.<./ 2.:.*.>.<.:.<.*.,.3.3.;.,.*.o.:.o.>.| :.<.4.4.2.>.<.*.3   ' / | ] | G D V e 9 z =     G       o   3   ",
"^   C O  .| 1 C & n ' L 3 '     | . /   9 1 . O g [   9 + I k N 9 p %./ 1 , ^ G W /   6 < 3 g ] J c - * R 8 P |   9 | R ' k ( / ",
"k 1 * t W 9 J W E O : [ c | b > u : ' 8 + u I   0 :   $ + [ {   * = R [ C G C C ) / 8 1 C C j C : > e V & 1     . 1   C t e + H ",
"      8   g | &.C C 4 ..o J _ 6   D ' C Q 3.U +   k 1.k & R l 8 } O v ( -.k t ' { : { { : g Y 0 & + l 8 g ~ + 2 . $   | O q C O ",
"W O W   r O q - k R & p V [ + j + - e - k R   N - 0 G k 8 ] k   | ,.C U h k v ' | + 9 K 1 C R - { L + j + O f R - O ( 9 v C -   ",
"j t 9 - 3 9 q   j k q &       c $ W ^ 4   O +           4 ]           * :     * Y         +   D h J J G 3 9 w   G :.v v q g g + ",
"' R l   * 2   D J l j < O <.  W | 9 ^ &.,./ %.| *.V  .&.*.R <.J : 1.1 C k :.8 &.*.3 O *.R I ^ G ; ^ ' 9 X.| D 1 <.>.) -.&.{ A 8 ",
"N       r P 4 q D ^ e 9 | R + s - +.b e Y k ' ' R O . . & <.j &./ * ^ ' . + + : ( g t | O * V Y . @ C t O     3 I D 9     O.O f ",
"( O G     .     ~ :   2 | D v 3   ..    A k ] 1 9 N 8 3   J .   -.( W / 1 ^ & ] ] + O q [ j 9 3 o 8 9 = 9 J +   V C l D O * J   ",
"+ J R { V | ! =  .D f { V G v + { z | / .     9 2 =   } + 2 ) . g / V O 3 F   : '   O 3 & I I 3 O   O   J     R G g > ( _ 3 G   ",
"L     + N E 3 * # t G o @ ] 2 t R . p |     C 1 b | ' 3 2 ] 4 :.-.+ R ] . D <.k   q   q > J ] ] J O   ]   3 1 R ' W e 2 k   ] J ",
",.-.:.*.<.<.:.q :.<.N | :.*.*.^ | R C ( ' | | ] | $.*.,.=.:.;.<.<.<.-.-.-.,.,.,.*.*.*.^ ' C J k q - 1 k k k v C g j L g q + .   ",
"q   L [ ] ) J 4 C C   & 2.' +.N /   I ' J / Q -.>.C ]   N 9  .  f E   8 : , : K C   =     -     O ] 6   Y   + I   f [ & ^ V q k ",
"I G 1 = O C | 9 V O g 8 . e O = } $ D s   J &.S O j g : ^ 9 C &.Y 3 3 b J 1   u j 2 ' * * +     = :   k D & 9 k       z + C C 3 ",
"O q     # L 4 + C ] 9 O.p : * : O L C t P k b 7 O = C V 8 z 9 k j V k = = 1 O D } ; O D N O   R   t k g O 9 j / [ q q G + D V C ",
"2 I + 4 . k   I H H     ' $ 4 ^ 3 ) z C Q U v n   k O O 1 I k k l : 1 1 O O 1 b ]   1 o.9 : ( _ O 1   + k # 1 ] [ + t + k V l q ",
"I C k j l   q + k ,   u + = O * 4 k G q .         O   + ; + & : +                 O   +   2 f                   O       C k k 1 ",
" .' C O ] +   ~ - 1 $ = C J | -.    q -.*.+ 3 q e q * z O e v R + q C :   q { | O C t ! C ) ..-.k * + g W ^ C ..I q G l G J 2 G ",
": + V u   f j R v + } R g g $ O : | = H   1 &.e | 2 L + &.| R =   ] I L 2 4   C : R E J D * z ]   +           1 = 2   k * O 1 : ",
"g   '   W   * 1 I x   2   C E + * +   q O O D g O C 0   '   + b C : b j     1 3 z + u g = j k R ; + { =   T + J 9 j ' + J O u   ",
":.) o.4 R ' ] R / v 2 3 | 1 *.l 8 O.  6 Y   ..k G + b 1 | *.C % g : N + 8 ( R   R ' @ c 4 Y V ]   3 t 3   O }   V C 2       B + ",
"= 4 J 2 #     8 D 9 F C J C # e I *.V N w V D   + + '   : v I D + ; J 9 z ] j - G . I r O V D   , O O + .   +   G I U 1 =   1 + ",
"* 4 +   O C j 8  .l ] V R / o.| ] &.$.C   2 J + O + R - 2 k ../ *.| ,.*.*.| %.] %.-.:.*.<.:.:.:.-.*.<.D o.o.*.-.| *.*.*.| | C ] ",
"+ Y :.0 R O   F g   +   1 = D 8 ] G C R   , l D 1   * _ S l C   9 + $   O       B t 9 + J : + e O C ^ C 9 H ' . 8 C f O 1 J O k ",
"  W + O J * 1 k k , t C <  .O O 3 &.G D q V , 2 k + q ' b D C   g I v C t * J   F k , b l q ^   H v - C 3 v * [ 3   X Y 3 0 . # ",
") J   1 k | + C C     k m O & O.  o R C | 2   S t   C ;   C C   & e   O       C V J H   / : , C 7 k 3 ^ . : > O   + q * > O 2 q ",
", ] C ^ ' S   D I ' J 8 4 C R   > t J k o.' [ R ' 6 N $.j q C R l + +     # , + G C +   R O H ~ + & V ' ' b + t z I q W v   J   ",
": l j | | ' ( ] G ' G ^ C k C k C V q D D R G / | *.,.*.*.:.:.| ] ' I D C k v D G C C I ^ ' A ' R C D O j v H j e t 9 j 2 8 k 2 ",
"C 8 q J   %.] + ' ^ = V   k   e = o.| : : ] / * k S C |   f O H + k   G C   2 b J   k o.J v / + t   z : J k *   O k H = 3 4   2 ",
"  2 L 1   8   k C q 1 .   g q 1 J R ]     9 . | q J   O 8 g   : W   q - v Y H & + 4   + 3 4 C * P ~     q ] + k X k , # : O + = ",
"O   q q 4 +   U 1 , O O u + 3 D o o.4 J q O C k g V k *.- +   & = |   &.C 1 q O B e   1 3 R C b     & '   O $ 9   8 + #   &   & ",
"t q $ q ; f q R q j O k 1 j v [ W   ..' R - : k 3 C -.Y u | 2 & : W   4 C I 1 * I + = ^ R : ' $ 0   O t :   e : + C k = = o   1 ",
"R C D j V k : 3 9 j q 3 , * k o . -     + $ , * 4 + e + O + + 4 3 : : 3 0 q N 0 4 + + b : 8 3             = + = : = : . =       ",
"  - O g O * 3 + q     2 o g 1 * O q g k | j , C   J L =   V g J +   , = 2     , D I = 9 1 2 9 3 9   k j   . k O   D 3   f ^     ",
"g   1 O Y   : z g + { ,   F g O . P L C R k   + 3 9 J . : q G '   * q + k g q : V 1 ' R ] 1   = 1 1   C , q     + 2 R     *   , ",
"V > + 8 b + + $ t J k ] g & + $ 8 . , k   J * O / =     k g > ^ : : + D u .     R 2 ' O       +   j = ' = 1 #   - = q 9     * V ",
"u       + : o q k ' 2 , 8 * q & : I g C 4   J   + O   O   t D   q O O t : 6   + ' 4 V = 1 g R ..* 1 . R     , &   . . k k = +   ",
"O       + H 3 C +   -   O   o O   +   & 1 l J 9 G O.I J v 8 / ~ } v | O , +   : + v + 9 t +   C v k g           : O + f 1 R g k "
};
